<svg width="42" height="42" viewBox="0 0 42 42" fill="none" xmlns="http://www.w3.org/2000/svg">
<path d="M6.23438 33.7969H7.1482C8.96708 30.3792 9.92578 26.5483 9.92578 22.6716V16.9805C9.92578 12.3225 12.8167 8.32732 16.8984 6.694V4.10156C16.8984 1.83996 18.7384 0 21 0C23.2616 0 25.1016 1.83996 25.1016 4.10156V6.694C29.1833 8.32732 32.0742 12.3224 32.0742 16.9805V22.6716C32.0742 26.5483 33.0329 30.3791 34.8518 33.7969H35.7656C36.4452 33.7969 36.9961 34.3478 36.9961 35.0273C36.9961 35.7069 36.4452 36.2578 35.7656 36.2578H27.8617C27.2787 39.5174 24.4248 42 21 42C17.5752 42 14.7214 39.5174 14.1382 36.2578H6.23438C5.55483 36.2578 5.00391 35.7069 5.00391 35.0273C5.00391 34.3478 5.55483 33.7969 6.23438 33.7969ZM22.6406 4.10156C22.6406 3.19692 21.9046 2.46094 21 2.46094C20.0954 2.46094 19.3594 3.19692 19.3594 4.10156V6.02798C19.8949 5.94809 20.4426 5.90625 21 5.90625C21.5574 5.90625 22.1051 5.94809 22.6406 6.02798V4.10156ZM29.6133 16.9805C29.6133 12.2311 25.7494 8.36719 21 8.36719C16.2506 8.36719 12.3867 12.2311 12.3867 16.9805V22.6716C12.3867 24.4853 12.1966 26.2899 11.8248 28.0547H30.1752C29.8034 26.29 29.6133 24.4853 29.6133 22.6716V16.9805ZM30.82 30.5156H11.18C10.8278 31.6353 10.4007 32.7319 9.90002 33.7969H32.1C31.5993 32.7319 31.1721 31.6353 30.82 30.5156ZM21 39.5391C23.0612 39.5391 24.8026 38.1492 25.3398 36.2578H16.6603C17.1974 38.1492 18.9388 39.5391 21 39.5391Z" fill="#929292"/>
<path d="M2.51934 14.9095C2.99979 14.429 3.77893 14.429 4.25947 14.9095C4.74001 15.39 4.74001 16.1691 4.25947 16.6496C3.09963 17.8095 2.46085 19.3545 2.46085 21C2.46085 22.6455 3.09963 24.1905 4.25947 25.3504C4.74001 25.8309 4.74001 26.6099 4.25947 27.0905C4.0192 27.3308 3.70436 27.4509 3.38944 27.4509C3.07461 27.4509 2.75961 27.3308 2.51942 27.0905C0.894621 25.4659 -9.53674e-05 23.3029 -9.53674e-05 21C-9.53674e-05 18.6971 0.894623 16.5341 2.51934 14.9095Z" fill="#929292"/>
<path d="M7.73994 18.3898C8.22048 18.8703 8.22048 19.6494 7.73994 20.1299C7.50754 20.3623 7.37949 20.6713 7.37949 21C7.37949 21.3287 7.50754 21.6376 7.73994 21.8701C8.22048 22.3506 8.22048 23.1297 7.73994 23.6102C7.49967 23.8505 7.18475 23.9707 6.86992 23.9707C6.55508 23.9707 6.24008 23.8506 5.99989 23.6102C4.56057 22.171 4.56057 19.8291 5.99989 18.3898C6.48027 17.9092 7.2594 17.9092 7.73994 18.3898Z" fill="#929292"/>
<path d="M37.7404 14.9095C38.2209 14.4291 39 14.429 39.4806 14.9095C41.1053 16.5341 42 18.6971 42 21C42 23.3029 41.1053 25.4659 39.4806 27.0905C39.2403 27.3308 38.9254 27.4509 38.6106 27.4509C38.2957 27.4509 37.9807 27.3308 37.7405 27.0905C37.26 26.61 37.26 25.8309 37.7405 25.3504C38.9003 24.1905 39.5391 22.6456 39.5391 21C39.5391 19.3545 38.9003 17.8095 37.7404 16.6496C37.2599 16.1691 37.2599 15.3901 37.7404 14.9095Z" fill="#929292"/>
<path d="M35.1302 23.9706C34.8153 23.9706 34.5004 23.8505 34.2602 23.6102C33.7797 23.1296 33.7797 22.3506 34.2602 21.87C34.4926 21.6376 34.6207 21.3286 34.6207 20.9999C34.6207 20.6712 34.4926 20.3623 34.2602 20.1298C33.7797 19.6493 33.7797 18.8702 34.2602 18.3897C34.7407 17.9092 35.5198 17.9092 36.0003 18.3897C37.4397 19.8289 37.4397 22.1708 36.0003 23.6102C35.7601 23.8505 35.4452 23.9706 35.1302 23.9706Z" fill="#929292"/>
</svg>
