<svg width="58" height="58" viewBox="0 0 58 58" fill="none" xmlns="http://www.w3.org/2000/svg">
<g filter="url(#filter0_d)">
<circle cx="28" cy="27" r="24" fill="#7CCD7A" stroke="white" stroke-width="2"/>
<g clip-path="url(#clip0)">
<path d="M37.9931 27.6368L33.5137 20.6147C34.1483 20.2812 34.5825 19.6156 34.5825 18.8502C34.5825 18.0125 34.0624 17.2943 33.3284 17.0003L34.6854 12.256C34.7439 12.0514 34.6869 11.8311 34.5364 11.6806C33.6337 10.7779 32.165 10.7779 31.2623 11.6806C31.0464 11.8965 30.7593 12.0154 30.454 12.0154C30.1486 12.0154 29.8615 11.8965 29.6443 11.6791L29.6414 11.6763C28.7419 10.7767 27.2758 10.7742 26.3727 11.6709L26.3558 11.6877C25.9101 12.1303 25.1861 12.129 24.742 11.6848L24.7377 11.6806C23.835 10.7779 22.3664 10.7779 21.4637 11.6806C21.3131 11.8312 21.2561 12.0516 21.3147 12.2564L22.6746 16.9992C21.939 17.2924 21.4176 18.0113 21.4176 18.8503C21.4176 19.6157 21.8516 20.2812 22.4864 20.6148L18.0069 27.6368C16.2739 30.3533 16.1641 33.6621 17.7132 36.4876C19.2622 39.3131 22.1107 41 25.333 41H30.6669C33.8892 41 36.7377 39.3131 38.2868 36.4876C39.8358 33.6621 39.726 30.3533 37.9931 27.6368ZM23.909 12.5092L23.9133 12.5135C24.8129 13.413 26.279 13.4155 27.182 12.5188L27.1988 12.5021C27.6445 12.0595 28.3685 12.0608 28.814 12.5063L28.8169 12.5092C29.7196 13.4118 31.1882 13.4118 32.0909 12.5092C32.4582 12.1419 33.0153 12.0773 33.4494 12.3153L32.1502 16.8579H23.8534L22.5508 12.3152C22.9849 12.0773 23.5418 12.142 23.909 12.5092ZM37.2592 35.9242C35.919 38.3687 33.4547 39.8281 30.667 39.8281H25.3331C22.5454 39.8281 20.081 38.3687 18.7409 35.9242C17.4008 33.4798 17.4958 30.6173 18.995 28.267L23.7311 20.8425H25.3631C25.6868 20.8425 25.9491 20.5802 25.9491 20.2566C25.9491 19.9329 25.6868 19.6706 25.3631 19.6706H23.4099C22.9575 19.6706 22.5895 19.3026 22.5895 18.8502C22.5895 18.3979 22.9575 18.0299 23.4099 18.0299H23.4118H32.5901C33.0425 18.0299 33.4105 18.3979 33.4105 18.8502C33.4105 19.3026 33.0425 19.6706 32.5901 19.6706H30.6369C30.3133 19.6706 30.0509 19.9329 30.0509 20.2566C30.0509 20.5802 30.3133 20.8425 30.6369 20.8425H32.2689L37.0051 28.267C38.5043 30.6173 38.5993 33.4797 37.2592 35.9242Z" fill="white"/>
<path d="M29.0331 30.1366C28.8861 30.0847 28.736 30.0306 28.586 29.9744V27.3186C28.9833 27.4355 29.2486 27.6251 29.2599 27.6333C29.5176 27.8264 29.8833 27.7752 30.0781 27.5181C30.2735 27.2602 30.2228 26.8926 29.9649 26.6972C29.9305 26.6711 29.3857 26.2666 28.586 26.1135V25.5304C28.586 25.2067 28.3237 24.9444 28 24.9444C27.6764 24.9444 27.414 25.2067 27.414 25.5304V26.1093C27.3148 26.1284 27.2142 26.1524 27.1122 26.1831C26.2875 26.4309 25.6711 27.1362 25.5034 28.0237C25.3504 28.8341 25.6101 29.6157 26.181 30.0635C26.4909 30.3065 26.8781 30.5284 27.414 30.7641V34.1625C26.9526 34.1333 26.6439 34.0283 26.1293 33.6917C25.8585 33.5144 25.4953 33.5904 25.3181 33.8613C25.1409 34.1321 25.2169 34.4952 25.4877 34.6724C26.2381 35.1633 26.7462 35.3023 27.414 35.3352V35.9412C27.414 36.2648 27.6764 36.5271 28 36.5271C28.3237 36.5271 28.586 36.2648 28.586 35.9412V35.2743C29.8408 34.9995 30.5747 33.9524 30.7393 32.9729C30.9546 31.6923 30.2848 30.5791 29.0331 30.1366ZM26.9043 29.1413C26.6791 28.9646 26.5835 28.6197 26.655 28.2411C26.7208 27.8929 26.9551 27.473 27.414 27.3177V29.4637C27.2214 29.361 27.0475 29.2536 26.9043 29.1413ZM29.5836 32.7786C29.4992 33.2804 29.1604 33.8127 28.5859 34.048V31.2213C28.605 31.2281 28.6231 31.2347 28.6425 31.2416C29.6931 31.6129 29.6284 32.5119 29.5836 32.7786Z" fill="white"/>
<path d="M28 20.8425C28.1541 20.8425 28.3053 20.7798 28.4143 20.6708C28.5233 20.5618 28.586 20.4106 28.586 20.2565C28.586 20.1024 28.5233 19.9512 28.4143 19.8423C28.3053 19.7333 28.1541 19.6706 28 19.6706C27.8459 19.6706 27.6947 19.7333 27.5858 19.8423C27.4768 19.9512 27.4141 20.1024 27.4141 20.2565C27.4141 20.4106 27.4768 20.5618 27.5858 20.6708C27.6947 20.7798 27.8459 20.8425 28 20.8425Z" fill="white"/>
</g>
</g>
<defs>
<filter id="filter0_d" x="0" y="0" width="58" height="58" filterUnits="userSpaceOnUse" color-interpolation-filters="sRGB">
<feFlood flood-opacity="0" result="BackgroundImageFix"/>
<feColorMatrix in="SourceAlpha" type="matrix" values="0 0 0 0 0 0 0 0 0 0 0 0 0 0 0 0 0 0 127 0"/>
<feOffset dx="1" dy="2"/>
<feGaussianBlur stdDeviation="2"/>
<feColorMatrix type="matrix" values="0 0 0 0 0 0 0 0 0 0 0 0 0 0 0 0 0 0 0.25 0"/>
<feBlend mode="normal" in2="BackgroundImageFix" result="effect1_dropShadow"/>
<feBlend mode="normal" in="SourceGraphic" in2="effect1_dropShadow" result="shape"/>
</filter>
<clipPath id="clip0">
<rect width="30" height="30" fill="white" transform="translate(13 11)"/>
</clipPath>
</defs>
</svg>
