<svg id="Capa_1" enable-background="new 0 0 512 512" height="512" viewBox="0 0 512 512" width="512" xmlns="http://www.w3.org/2000/svg"><g><path d="m312.821 355.316h-56.821-56.821l-6.357 89.326c19.218 4.161 41.059 6.358 63.178 6.358s43.96-2.197 63.179-6.357z" fill="#91bd00"/><path d="m312.821 355.316h-56.821v95.684c22.119 0 43.96-2.197 63.179-6.357z" fill="#688b13"/><path d="m61 392.509v-16.509c0-32.051 20.361-60.571 50.684-70.972l99.316 40.972v120c0 8.291-6.709 15-15 15h-45l-15-30-15 30h-106c-8.291 0-15-6.709-15-15 0-36.226 26.811-66.519 61-73.491z" fill="#b7db38"/><path d="m136 391c8.284 0 15 6.714 15 15v75h-30v-75c0-8.286 6.716-15 15-15z" fill="#91bd00"/><path d="m451 392.509v-16.509c0-32.051-20.361-60.571-50.684-70.972l-99.316 40.972v120c0 8.291 6.709 15 15 15h45l15-30 15 30h106c8.291 0 15-6.709 15-15 0-36.226-26.811-66.519-61-73.491z" fill="#91bd00"/><path d="m376 301h-120-112.5l-36.407 30c26.501 35.442 83.124 60 148.907 60s122.406-24.558 148.907-60z" fill="#f4f4f7"/><path d="m404.907 331-28.907-30h-120v90c65.782 0 122.406-24.558 148.907-60z" fill="#e2e2eb"/><path d="m331 61v-15c0-8.291-6.709-15-15-15s-15 6.709-15 15v45z" fill="#ff9100"/><path d="m211 46c0-8.291-6.709-15-15-15s-15 6.709-15 15v15l30 30z" fill="#fabe2c"/><path d="m256 31c-8.291 0-15 6.709-15 15v30c0 8.291 6.709 15 15 15s15-6.709 15-15v-30c0-8.291-6.709-15-15-15z" fill="#fabe2c"/><path d="m271 76v-30c0-8.291-6.709-15-15-15v60c8.291 0 15-6.709 15-15z" fill="#ff9100"/><path d="m256 61h-75v90h75 75v-90z" fill="#fabe2c"/><path d="m256 61h75v90h-75z" fill="#ff9100"/><path d="m256 181c-91.126 0-165 47.01-165 105 0 16.128 5.883 31.346 16.093 45h148.907 148.907c10.21-13.654 16.093-28.872 16.093-45 0-57.99-73.874-105-165-105z" fill="#daf569"/><path d="m421 286c0-57.99-73.874-105-165-105v150h148.907c10.21-13.654 16.093-28.872 16.093-45z" fill="#b7db38"/><path d="m166 271c-41.353 0-75-33.647-75-75s33.647-75 75-75 75 33.647 75 75-33.647 75-75 75z" fill="#b7db38"/><path d="m346 271c-41.353 0-75-33.647-75-75s33.647-75 75-75 75 33.647 75 75-33.647 75-75 75z" fill="#91bd00"/><circle cx="166" cy="196" fill="#f4f4f7" r="45"/><circle cx="346" cy="196" fill="#e2e2eb" r="45"/><circle cx="346" cy="196" fill="#5a344b" r="15"/><circle cx="166" cy="196" fill="#704c55" r="15"/><path d="m376 391c-8.284 0-15 6.714-15 15v75h30v-75c0-8.286-6.716-15-15-15z" fill="#688b13"/></g></svg>