<svg width="26" height="35" viewBox="0 0 26 35" fill="none" xmlns="http://www.w3.org/2000/svg">
<path d="M19.8684 8.69653C18.5466 6.55087 17.117 4.46119 15.843 2.81244C13.8298 0.20706 13.256 0 12.7148 0C12.1737 0 11.5998 0.20706 9.5867 2.81244C8.31269 4.46119 6.88309 6.55087 5.5613 8.69653C3.48434 12.068 0 18.3165 0 22.2852C0 29.2962 5.70383 35 12.7148 35C19.7258 35 25.4296 29.2962 25.4296 22.2852C25.4296 18.3165 21.9454 12.0679 19.8684 8.69653ZM12.7148 32.9492C6.83463 32.9492 2.05078 28.1654 2.05078 22.2852C2.05078 19.858 3.84425 15.4978 6.97141 10.3227C9.43604 6.244 11.7565 3.2541 12.7148 2.27971C13.6732 3.2541 15.9937 6.244 18.4582 10.3227C21.5854 15.4978 23.3789 19.858 23.3789 22.2852C23.3789 28.1654 18.595 32.9492 12.7148 32.9492Z" fill="#929292"/>
</svg>
