<svg width="27" height="27" viewBox="0 0 27 27" fill="none" xmlns="http://www.w3.org/2000/svg">
<g clip-path="url(#clip0)">
<path d="M1.44469 7.89744L1.38586 4.37825C1.35337 2.43466 2.90262 0.83273 4.84621 0.800237C5.77956 0.784634 6.68087 1.14044 7.35188 1.78938C8.02289 2.43832 8.40862 3.32724 8.42423 4.26059L8.48306 7.77977L1.44469 7.89744Z" fill="#E8EDFC"/>
<path d="M4.84625 0.800248C4.6248 0.804548 4.40424 0.829596 4.18747 0.875064C5.85145 1.16395 7.07568 2.59404 7.10457 4.28266L7.1634 7.80184L8.48309 7.77978L8.42426 4.2606C8.39177 2.31701 6.78984 0.767756 4.84625 0.800248Z" fill="#CAD9FC"/>
<path d="M8.48304 7.7798L1.44468 7.89746C0.958778 7.90559 0.571465 8.30607 0.579589 8.79197L0.72667 17.5899C0.734793 18.0758 1.13528 18.4631 1.62117 18.455L8.65954 18.3374C9.14544 18.3292 9.53275 17.9287 9.52463 17.4428L9.37755 8.64488C9.36942 8.15899 8.96894 7.77167 8.48304 7.7798Z" fill="#A4C2F7"/>
<path d="M8.48308 7.77979L7.16339 7.80185C7.64929 7.79373 8.04977 8.18104 8.05789 8.66694L8.20498 17.4649C8.2131 17.9508 7.82579 18.3513 7.33989 18.3594L8.65958 18.3373C9.14548 18.3292 9.53279 17.9287 9.52467 17.4428L9.37759 8.64488C9.36946 8.15898 8.96898 7.77166 8.48308 7.77979Z" fill="#7FACFA"/>
<path d="M1.62121 18.455L1.66534 21.0944C1.70595 23.5239 3.70837 25.4604 6.13786 25.4198L18.4955 25.2132C18.7558 25.2084 19.0118 25.2806 19.2311 25.4209L19.893 25.8464C20.1124 25.9866 20.3683 26.0589 20.6287 26.0541L24.5812 25.988C25.0233 25.9904 25.4037 25.6756 25.4839 25.2407C25.522 24.9849 25.4457 24.7253 25.2753 24.5309C25.1048 24.3364 24.8574 24.2268 24.5989 24.2311L24.9917 24.2246C25.4339 24.227 25.8142 23.9121 25.8944 23.4773C25.9337 23.221 25.8579 22.9603 25.6873 22.7651C25.5167 22.5698 25.2686 22.4597 25.0093 22.4642L25.4022 22.4576C25.8444 22.46 26.2247 22.1452 26.3049 21.7103C26.3442 21.454 26.2684 21.1934 26.0978 20.9981C25.9272 20.8028 25.6791 20.6927 25.4198 20.6973C25.9057 20.6891 26.293 20.2886 26.2849 19.8028C26.2768 19.3169 25.8763 18.9295 25.3904 18.9377L24.0707 18.9597L24.056 18.0799C24.0479 17.594 23.6474 17.2067 23.1615 17.2148L21.5801 17.2413C21.1892 17.2484 20.8215 17.4284 20.5762 17.7328L19.1968 19.4465C18.951 19.7515 18.5825 19.9316 18.1908 19.9381L9.56879 20.0822C9.0829 20.0903 8.68241 19.703 8.67429 19.2171L8.65958 18.3373L1.62121 18.455Z" fill="#E8EDFC"/>
<path d="M8.24905 20.1043L9.56875 20.0822C9.08285 20.0903 8.68237 19.703 8.67424 19.2171L8.65954 18.3373L7.33984 18.3594L7.35455 19.2392C7.36268 19.7251 7.76316 20.1124 8.24905 20.1043Z" fill="#CAD9FC"/>
<path d="M25.4198 20.6973C25.9057 20.6891 26.293 20.2886 26.2849 19.8028C26.2768 19.3169 25.8763 18.9295 25.3904 18.9377L24.0707 18.9597C24.5566 18.9516 24.9571 19.3389 24.9652 19.8248C24.9733 20.3107 24.586 20.7112 24.1001 20.7193C24.3594 20.7148 24.6075 20.8249 24.7781 21.0202C24.9487 21.2155 25.0245 21.4761 24.9852 21.7324C24.905 22.1673 24.5247 22.4821 24.0825 22.4797L23.6897 22.4863C23.9489 22.4817 24.197 22.5918 24.3676 22.7871C24.5383 22.9824 24.614 23.243 24.5748 23.4994C24.4945 23.9342 24.1142 24.2491 23.672 24.2466L23.2792 24.2532C23.5385 24.2487 23.7865 24.3588 23.9572 24.5541C24.1278 24.7494 24.2036 25.01 24.1643 25.2663C24.0841 25.7012 23.7037 26.016 23.2615 26.0136L24.5812 25.9915C25.0234 25.9939 25.4037 25.6791 25.484 25.2442C25.5233 24.9879 25.4475 24.7273 25.2768 24.532C25.1062 24.3367 24.8582 24.2266 24.5989 24.2311L24.9917 24.2246C25.4339 24.227 25.8142 23.9121 25.8944 23.4773C25.9337 23.221 25.8579 22.9603 25.6873 22.7651C25.5167 22.5698 25.2686 22.4597 25.0093 22.4642L25.4022 22.4576C25.8444 22.46 26.2247 22.1452 26.3049 21.7103C26.3442 21.454 26.2684 21.1934 26.0978 20.9981C25.9272 20.8028 25.6791 20.6927 25.4198 20.6973Z" fill="#CAD9FC"/>
<path d="M23.1615 17.2148L21.8418 17.2369C22.3277 17.2288 22.7282 17.6161 22.7363 18.102L22.751 18.9818L24.0707 18.9597L24.056 18.0799C24.0479 17.594 23.6474 17.2067 23.1615 17.2148Z" fill="#CAD9FC"/>
<path d="M17.7062 6.74555C19.4069 6.71712 20.7625 5.31543 20.734 3.61479C20.7056 1.91414 19.3039 0.558549 17.6033 0.58698C15.9026 0.615411 14.547 2.0171 14.5755 3.71774C14.6039 5.41839 16.0056 6.77398 17.7062 6.74555Z" fill="#E8EDFC"/>
<path d="M17.6033 0.586965C17.3814 0.591021 17.1605 0.619055 16.9446 0.670579C18.3603 0.95879 19.3854 2.19237 19.4096 3.63691C19.4337 5.08146 18.4504 6.34861 17.0452 6.68398C18.2025 6.91958 19.3926 6.4726 20.1086 5.53339C20.8247 4.59419 20.9406 3.32821 20.4069 2.27461C19.8733 1.22101 18.7841 0.565393 17.6033 0.586965Z" fill="#CAD9FC"/>
<path d="M19.0259 6.72349L16.3865 6.76761C15.9006 6.77573 15.5133 7.17622 15.5214 7.66211C15.5295 8.14801 15.93 8.53533 16.4159 8.5272L19.0553 8.48308C19.5412 8.47496 19.9285 8.07447 19.9204 7.58857C19.9123 7.10268 19.5118 6.71536 19.0259 6.72349Z" fill="#A4C2F7"/>
<path d="M19.0259 6.72348L17.7062 6.74554C18.1921 6.73742 18.5926 7.12473 18.6007 7.61063C18.6088 8.09653 18.2215 8.49702 17.7356 8.50514L19.0553 8.48308C19.5412 8.47495 19.9285 8.07447 19.9204 7.58857C19.9123 7.10267 19.5118 6.71536 19.0259 6.72348Z" fill="#7FACFA"/>
<path d="M17.8533 15.5435C19.311 15.5191 20.4663 13.9238 20.4338 11.9802C20.4014 10.0366 19.1933 8.48076 17.7356 8.50513C16.2779 8.5295 15.1226 10.1248 15.1551 12.0684C15.1876 14.012 16.3956 15.5679 17.8533 15.5435Z" fill="#E8EDFC"/>
<path d="M17.7357 8.50514C17.5109 8.5104 17.2885 8.55307 17.0777 8.63143C18.2219 9.00392 19.0868 10.3632 19.1142 12.0023C19.1416 13.6413 18.3226 15.0287 17.1915 15.4393C17.4048 15.5105 17.6285 15.5458 17.8533 15.5435C19.3111 15.5191 20.4664 13.9237 20.4339 11.9802C20.4014 10.0367 19.1935 8.48077 17.7357 8.50514Z" fill="#CAD9FC"/>
<path d="M1.62118 18.455L1.6653 21.0944C1.70592 23.5239 3.70833 25.4604 6.13782 25.4198L7.45752 25.3978C5.02803 25.4384 3.02561 23.5018 2.985 21.0723L2.94087 18.4329C2.45497 18.4411 2.05449 18.0537 2.04637 17.5678L1.89929 8.76988C1.89116 8.28399 2.27848 7.8835 2.76437 7.87538L2.70554 4.3562C2.67797 2.66755 3.85372 1.19735 5.50711 0.852998L5.50975 0.852953C5.07175 0.774018 4.62254 0.781528 4.18742 0.87506C2.53402 1.21941 1.35828 2.68961 1.38585 4.37826L1.44468 7.89744C0.958783 7.90557 0.57147 8.30605 0.579593 8.79195L0.726674 17.5899C0.730575 17.8232 0.827009 18.0455 0.994761 18.2077C1.16251 18.3699 1.38784 18.4589 1.62118 18.455Z" fill="white"/>
<path d="M0.227966 14.0781L1.10776 14.0634L1.16659 17.5825L0.286799 17.5973L0.227966 14.0781Z" fill="white"/>
<path d="M0.713464 16.2701C0.470535 16.2753 0.269326 16.0827 0.264049 15.8397C0.258773 15.5968 0.451428 15.3956 0.694357 15.3903L0.698756 15.3903C0.941705 15.3862 1.14195 15.5798 1.14601 15.8228C1.15007 16.0657 0.956413 16.266 0.713464 16.2701Z" fill="#428DFF"/>
<path d="M25.383 18.4969L24.5032 18.5116L24.4959 18.0717C24.4837 17.3429 23.883 16.7619 23.1541 16.7741L21.5727 16.8005C21.0504 16.8085 20.5589 17.0489 20.2319 17.4561L18.8525 19.1693C18.6893 19.3727 18.4441 19.4929 18.1834 19.4973L9.5614 19.6414C9.31845 19.6455 9.11821 19.4518 9.11415 19.2089L9.10544 18.6881C9.62773 18.4935 9.97153 17.9919 9.96453 17.4346L9.88363 12.5957L10.3235 12.5884C11.2953 12.5721 12.07 11.7712 12.0537 10.7994L11.9949 7.28018C11.9908 7.03723 12.1845 6.83699 12.4274 6.83293C12.6704 6.82886 12.8706 7.02252 12.8747 7.26547L13.0218 16.0634C13.0461 17.5211 14.2476 18.6831 15.7053 18.6587C17.163 18.6343 18.3249 17.4329 18.3005 15.9752L18.2998 15.9312C19.3213 15.6669 20.1469 14.9159 20.5064 13.9239C20.5098 13.9164 20.514 13.9088 20.517 13.9008C20.7663 13.289 20.8877 12.6325 20.8737 11.972C20.882 10.7855 20.4107 9.64604 19.5668 8.81203C20.0136 8.61684 20.3164 8.19127 20.3543 7.70521C20.3922 7.21915 20.1591 6.75177 19.748 6.48965C20.978 5.57963 21.4792 3.97921 20.988 2.53018C20.4967 1.08114 19.1256 0.115442 17.5958 0.141017C16.066 0.166593 14.7279 1.17758 14.2854 2.64223C13.8429 4.10688 14.3973 5.68964 15.657 6.55804C15.2549 6.83375 15.0375 7.30867 15.0917 7.79319C15.1458 8.27771 15.4627 8.69292 15.9157 8.87307C15.1001 9.73482 14.6672 10.8894 14.7152 12.0749C14.7234 12.7351 14.8667 13.3867 15.1361 13.9895C15.1394 13.9973 15.1439 14.0047 15.1475 14.0122C15.5397 14.9921 16.3899 15.7156 17.42 15.9459L17.4207 15.9899C17.437 16.9617 16.6624 17.7626 15.6906 17.7789C14.7188 17.7951 13.9178 17.0205 13.9015 16.0487L13.7545 7.25076C13.7423 6.52192 13.1416 5.94095 12.4127 5.95313C11.6839 5.96531 11.1029 6.56604 11.1151 7.29489L11.1739 10.8141C11.182 11.3 10.7947 11.7005 10.3088 11.7086L9.86893 11.7159L9.81745 8.63664C9.80582 8.07942 9.44544 7.58956 8.91694 7.4126L8.86411 4.25237C8.82756 2.06583 7.02538 0.322923 4.83884 0.359477C2.6523 0.396031 0.909393 2.1982 0.945947 4.38474L0.998779 7.54497C0.476492 7.7395 0.132686 8.24114 0.139692 8.79843L0.227941 14.0772C0.232003 14.3202 0.432244 14.5138 0.675193 14.5097C0.918142 14.5057 1.1118 14.3054 1.10774 14.0625L1.01949 8.78372C1.01543 8.54077 1.20908 8.34053 1.45203 8.33647L8.4904 8.21881C8.73335 8.21474 8.93359 8.4084 8.93765 8.65135L9.08473 17.4493C9.08879 17.6923 8.89514 17.8925 8.65219 17.8966L1.61382 18.0142C1.37087 18.0183 1.17063 17.8246 1.16657 17.5817C1.16251 17.3387 0.962267 17.1451 0.719318 17.1491C0.476369 17.1532 0.282712 17.3534 0.286774 17.5964C0.2984 18.1536 0.658781 18.6435 1.18728 18.8204L1.2254 21.1009C1.27321 23.7719 3.47399 25.9004 6.14517 25.8588L18.5028 25.6523C18.6765 25.6491 18.8471 25.6977 18.9931 25.7919L19.655 26.2173C19.9471 26.4056 20.2886 26.5029 20.636 26.4966L24.5885 26.4306C25.2452 26.428 25.8057 25.9552 25.9189 25.3083C25.9637 25.0059 25.9029 24.6974 25.7467 24.4346C26.0598 24.2339 26.2719 23.9087 26.3293 23.5413C26.3742 23.239 26.3134 22.9304 26.1572 22.6677C26.4703 22.467 26.6824 22.1418 26.7398 21.7744C26.7973 21.3894 26.6825 20.9986 26.4258 20.706L26.403 20.68C26.7434 20.2863 26.8207 19.7294 26.6004 19.2579C26.3801 18.7864 25.9034 18.4884 25.383 18.4969ZM15.0623 4.14875L15.4626 4.14206C15.7055 4.138 15.8992 3.93776 15.8951 3.69481C15.8911 3.45186 15.6908 3.2582 15.4479 3.26226L15.0476 3.26896C15.1071 2.87605 15.255 2.5018 15.4803 2.17443L15.7674 2.45212C15.8798 2.56463 16.0441 2.60776 16.1972 2.56493C16.3504 2.5221 16.4685 2.39998 16.5062 2.24551C16.5438 2.09103 16.4952 1.92824 16.379 1.81971L16.0919 1.54202C16.4116 1.30594 16.7807 1.14555 17.1714 1.07295L17.178 1.47326C17.1821 1.71621 17.3824 1.90986 17.6253 1.9058C17.8682 1.90174 18.0619 1.7015 18.0578 1.45855L18.0512 1.05824C18.4441 1.11774 18.8183 1.2657 19.1457 1.49096L18.868 1.7781C18.7555 1.89046 18.7123 2.05478 18.7552 2.20791C18.798 2.36104 18.9201 2.47914 19.0746 2.51683C19.2291 2.55451 19.3919 2.50592 19.5004 2.38972L19.7781 2.10258C20.0142 2.42224 20.1746 2.79134 20.2472 3.18203L19.8469 3.18872C19.6039 3.19278 19.4102 3.39303 19.4143 3.63598C19.4184 3.87892 19.6186 4.07258 19.8616 4.06852L20.2619 4.06183C20.2024 4.45473 20.0544 4.82898 19.8291 5.15635L19.542 4.87866C19.3666 4.71484 19.0923 4.72181 18.9254 4.89433C18.7586 5.06685 18.7608 5.34125 18.9304 5.51107L19.2175 5.78877C18.3156 6.45803 17.0876 6.47856 16.1638 5.83982L16.4414 5.55268C16.6053 5.37729 16.5983 5.10296 16.4258 4.93612C16.2533 4.76927 15.9789 4.77147 15.809 4.94107L15.5313 5.2282C15.2953 4.90855 15.1349 4.53945 15.0623 4.14875ZM16.4086 8.08643C16.1656 8.09049 15.9654 7.89684 15.9613 7.65389C15.9572 7.41094 16.1509 7.2107 16.3939 7.20664L19.0332 7.16251C19.2762 7.15845 19.4764 7.35211 19.4805 7.59506C19.4846 7.83801 19.2909 8.03825 19.0479 8.04231L16.4086 8.08643ZM16.2951 14.2486L16.9514 14.2376C17.1944 14.2336 17.388 14.0333 17.384 13.7904C17.3799 13.5474 17.1797 13.3538 16.9367 13.3579L15.8321 13.3763C15.7312 13.0927 15.6625 12.7987 15.6274 12.4997L16.922 12.4781C17.165 12.474 17.3586 12.2738 17.3545 12.0308C17.3505 11.7879 17.1502 11.5942 16.9073 11.5983L15.6127 11.6199C15.6378 11.3199 15.6966 11.0237 15.788 10.7369L16.8926 10.7185C17.1355 10.7144 17.3292 10.5142 17.3251 10.2712C17.3211 10.0283 17.1208 9.83461 16.8779 9.83867L16.2215 9.84964C16.5322 9.29941 17.1112 8.95494 17.743 8.94437C18.3748 8.93381 18.9649 9.25874 19.2938 9.79828L18.6375 9.80925C18.3945 9.81332 18.2009 10.0136 18.2049 10.2565C18.209 10.4995 18.4092 10.6931 18.6522 10.689L19.7568 10.6706C19.8577 10.9542 19.9264 11.2482 19.9615 11.5472L18.6669 11.5688C18.4239 11.5729 18.2303 11.7731 18.2343 12.0161C18.2384 12.259 18.4386 12.4527 18.6816 12.4486L19.9762 12.427C19.9511 12.727 19.8923 13.0232 19.8009 13.31L18.6963 13.3284C18.4534 13.3325 18.2597 13.5327 18.2638 13.7757C18.2678 14.0186 18.4681 14.2123 18.711 14.2082L19.3673 14.1973C19.0566 14.7475 18.4777 15.092 17.8459 15.1025C17.2141 15.1131 16.624 14.7882 16.2951 14.2486ZM4.85355 1.23927C6.55342 1.21279 7.95396 2.56727 7.98431 4.26708L8.03579 7.34636L1.87722 7.44932L1.82574 4.37004C1.79927 2.67017 3.15374 1.26963 4.85355 1.23927ZM25.4271 21.1363C25.5574 21.1339 25.682 21.1894 25.7674 21.2878C25.8528 21.3861 25.8902 21.5173 25.8695 21.6459C25.8191 21.8664 25.6209 22.0213 25.3948 22.0169L25.002 22.0234C24.759 22.0275 24.5653 22.2277 24.5694 22.4707C24.5735 22.7136 24.7737 22.9073 25.0167 22.9032C25.1469 22.9009 25.2715 22.9563 25.3569 23.0547C25.4423 23.1531 25.4797 23.2842 25.459 23.4129C25.4087 23.6334 25.2104 23.7883 24.9843 23.7838L24.5915 23.7904C24.3485 23.7944 24.1549 23.9947 24.1589 24.2376C24.163 24.4806 24.3632 24.6742 24.6062 24.6702C24.7364 24.6678 24.861 24.7233 24.9464 24.8217C25.0318 24.92 25.0692 25.0512 25.0486 25.1798C24.9982 25.4003 24.8 25.5552 24.5738 25.5508L20.6213 25.6168C20.4477 25.62 20.277 25.5714 20.131 25.4772L19.4692 25.0518C19.177 24.8635 18.8356 24.7662 18.4881 24.7725L6.13047 24.9791C3.94499 25.0129 2.1444 23.2715 2.1052 21.0862L2.06843 18.8867L8.227 18.7837L8.23435 19.2236C8.24654 19.9525 8.84726 20.5334 9.57611 20.5212L18.1981 20.3771C18.7204 20.3691 19.2119 20.1287 19.5389 19.7215L20.9183 18.0083C21.0814 17.8049 21.3267 17.6847 21.5874 17.6803L23.1688 17.6539C23.4118 17.6498 23.612 17.8435 23.6161 18.0864L23.6234 18.5263L22.3037 18.5484C22.0608 18.5524 21.8671 18.7527 21.8712 18.9956C21.8752 19.2386 22.0755 19.4322 22.3184 19.4282L25.3977 19.3767C25.6407 19.3726 25.8409 19.5663 25.845 19.8092C25.849 20.0522 25.6554 20.2524 25.4124 20.2565C25.1695 20.2606 24.9758 20.4608 24.9799 20.7037C24.984 20.9467 25.1842 21.1403 25.4271 21.1363Z" fill="#428DFF"/>
<path d="M17.6621 4.10615C17.7788 4.10417 17.8899 4.05594 17.971 3.97206L18.4035 3.52481C18.516 3.41245 18.5591 3.24813 18.5163 3.095C18.4735 2.94187 18.3514 2.82377 18.1969 2.78608C18.0424 2.74839 17.8796 2.79699 17.7711 2.91319L17.3385 3.36044C17.2149 3.48835 17.1804 3.67815 17.2512 3.84137C17.3221 4.00459 17.4842 4.10908 17.6621 4.10615Z" fill="#428DFF"/>
<path d="M2.91143 16.6733L2.79377 9.63497C2.78971 9.39202 2.58946 9.19836 2.34651 9.20242C2.10357 9.20649 1.90991 9.40673 1.91397 9.64968L2.03164 16.6881C2.0357 16.931 2.23594 17.1247 2.47889 17.1206C2.72184 17.1165 2.91549 16.9163 2.91143 16.6733Z" fill="#428DFF"/>
<path d="M8.19024 16.5851L8.07258 9.54671C8.06852 9.30376 7.86827 9.11011 7.62532 9.11417C7.38237 9.11823 7.18872 9.31847 7.19278 9.56142L7.31044 16.5998C7.31451 16.8427 7.51475 17.0364 7.7577 17.0323C8.00065 17.0283 8.1943 16.828 8.19024 16.5851Z" fill="#428DFF"/>
<path d="M6.35713 12.2155C6.35307 11.9726 6.15283 11.7789 5.90988 11.783L4.15029 11.8124C3.90734 11.8165 3.71368 12.0167 3.71774 12.2597C3.7218 12.5026 3.92205 12.6963 4.16499 12.6922L5.92459 12.6628C6.16754 12.6587 6.36119 12.4585 6.35713 12.2155Z" fill="#428DFF"/>
<path d="M4.61959 13.5646C4.37664 13.5687 4.18298 13.7689 4.18704 14.0119C4.1911 14.2548 4.39134 14.4485 4.63429 14.4444L5.51409 14.4297C5.75704 14.4257 5.9507 14.2254 5.94664 13.9825C5.94257 13.7395 5.74233 13.5459 5.49938 13.5499L4.61959 13.5646Z" fill="#428DFF"/>
</g>
<defs>
<clipPath id="clip0">
<rect width="26.3976" height="26.3976" fill="white" transform="translate(0 0.441254) rotate(-0.957764)"/>
</clipPath>
</defs>
</svg>
