<svg width="26" height="27" viewBox="0 0 26 27" fill="none" xmlns="http://www.w3.org/2000/svg">
<path d="M1.28088 8.30313H24.7189V25.6698H1.28088V8.30313Z" fill="#DFEEF4"/>
<path d="M1.28088 3.34085H24.7189V8.30316H1.28088V3.34085Z" fill="#F45858"/>
<path d="M12.2421 1.33017H13.7578V5.35106H12.2421V1.33017Z" fill="#6D7A84"/>
<path d="M18.2918 1.33017H19.8075V5.35106H18.2918V1.33017Z" fill="#6D7A84"/>
<path d="M6.19244 1.33017H7.70816V5.35106H6.19244V1.33017Z" fill="#6D7A84"/>
<path d="M5.61864 13.3589C6.32348 13.3589 6.89487 12.7655 6.89487 12.0336C6.89487 11.3016 6.32348 10.7083 5.61864 10.7083C4.9138 10.7083 4.34241 11.3016 4.34241 12.0336C4.34241 12.7655 4.9138 13.3589 5.61864 13.3589Z" fill="#3EA2E5"/>
<path d="M10.5395 13.3589C11.2444 13.3589 11.8158 12.7655 11.8158 12.0336C11.8158 11.3016 11.2444 10.7083 10.5395 10.7083C9.8347 10.7083 9.26331 11.3016 9.26331 12.0336C9.26331 12.7655 9.8347 13.3589 10.5395 13.3589Z" fill="#3EA2E5"/>
<path d="M15.4604 13.3589C16.1653 13.3589 16.7367 12.7655 16.7367 12.0336C16.7367 11.3016 16.1653 10.7083 15.4604 10.7083C14.7556 10.7083 14.1842 11.3016 14.1842 12.0336C14.1842 12.7655 14.7556 13.3589 15.4604 13.3589Z" fill="#3EA2E5"/>
<path d="M20.3813 13.3589C21.0862 13.3589 21.6576 12.7655 21.6576 12.0336C21.6576 11.3016 21.0862 10.7083 20.3813 10.7083C19.6765 10.7083 19.1051 11.3016 19.1051 12.0336C19.1051 12.7655 19.6765 13.3589 20.3813 13.3589Z" fill="#3EA2E5"/>
<path d="M5.61864 18.3117C6.32348 18.3117 6.89487 17.7183 6.89487 16.9864C6.89487 16.2544 6.32348 15.6611 5.61864 15.6611C4.9138 15.6611 4.34241 16.2544 4.34241 16.9864C4.34241 17.7183 4.9138 18.3117 5.61864 18.3117Z" fill="#3EA2E5"/>
<path d="M10.5395 18.3117C11.2444 18.3117 11.8158 17.7183 11.8158 16.9864C11.8158 16.2544 11.2444 15.6611 10.5395 15.6611C9.8347 15.6611 9.26331 16.2544 9.26331 16.9864C9.26331 17.7183 9.8347 18.3117 10.5395 18.3117Z" fill="#3EA2E5"/>
<path d="M15.4604 18.3117C16.1653 18.3117 16.7367 17.7183 16.7367 16.9864C16.7367 16.2544 16.1653 15.6611 15.4604 15.6611C14.7556 15.6611 14.1842 16.2544 14.1842 16.9864C14.1842 17.7183 14.7556 18.3117 15.4604 18.3117Z" fill="#3EA2E5"/>
<path d="M20.3813 18.3117C21.0862 18.3117 21.6576 17.7183 21.6576 16.9864C21.6576 16.2544 21.0862 15.6611 20.3813 15.6611C19.6765 15.6611 19.1051 16.2544 19.1051 16.9864C19.1051 17.7183 19.6765 18.3117 20.3813 18.3117Z" fill="#3EA2E5"/>
<path d="M5.61864 23.2647C6.32348 23.2647 6.89487 22.6714 6.89487 21.9394C6.89487 21.2074 6.32348 20.6141 5.61864 20.6141C4.9138 20.6141 4.34241 21.2074 4.34241 21.9394C4.34241 22.6714 4.9138 23.2647 5.61864 23.2647Z" fill="#3EA2E5"/>
<path d="M10.5395 23.2647C11.2444 23.2647 11.8158 22.6714 11.8158 21.9394C11.8158 21.2074 11.2444 20.6141 10.5395 20.6141C9.8347 20.6141 9.26331 21.2074 9.26331 21.9394C9.26331 22.6714 9.8347 23.2647 10.5395 23.2647Z" fill="#3EA2E5"/>
<path d="M15.4604 23.2647C16.1653 23.2647 16.7367 22.6714 16.7367 21.9394C16.7367 21.2074 16.1653 20.6141 15.4604 20.6141C14.7556 20.6141 14.1842 21.2074 14.1842 21.9394C14.1842 22.6714 14.7556 23.2647 15.4604 23.2647Z" fill="#3EA2E5"/>
<path d="M20.3813 23.2647C21.0862 23.2647 21.6576 22.6714 21.6576 21.9394C21.6576 21.2074 21.0862 20.6141 20.3813 20.6141C19.6765 20.6141 19.1051 21.2074 19.1051 21.9394C19.1051 22.6714 19.6765 23.2647 20.3813 23.2647Z" fill="#3EA2E5"/>
</svg>
