<svg width="58" height="58" viewBox="0 0 58 58" fill="none" xmlns="http://www.w3.org/2000/svg">
<g filter="url(#filter0_d)">
<circle cx="28" cy="27" r="24" fill="#BB4B4B" stroke="white" stroke-width="2"/>
<mask id="path-2-inside-1" fill="white">
<path d="M41.7265 29.5061C41.4239 28.9047 40.9032 28.4563 40.2604 28.2435C39.6169 28.0303 38.9315 28.0799 38.3298 28.3832L33.8559 30.6424C33.494 29.6884 32.5715 29.0084 31.4928 29.0084H28.4796C27.2767 27.8683 25.588 27.2207 23.7889 27.2207C22.6541 27.2207 21.3975 27.68 20.0682 28.1993V27.1438H15V39.5601H20.0683V37.0862L30.6398 39.0758L40.644 32.8867C41.2302 32.5804 41.6659 32.0651 41.873 31.4316C42.0836 30.7875 42.0307 30.1022 41.7265 29.5061ZM18.4863 37.9781H16.582V28.7258H18.4863V37.9781ZM40.3693 30.94C40.2901 31.1824 40.1229 31.3781 39.8985 31.4912L39.8677 31.5067L30.3294 37.4076L20.0683 35.4764V29.8985C20.1502 29.8664 20.2325 29.8341 20.3135 29.8024C21.6795 29.2659 22.8592 28.8027 23.789 28.8027C25.2798 28.8027 26.6593 29.363 27.5735 30.3399L27.808 30.5904H31.4928C32.0139 30.5904 32.4379 31.0151 32.4379 31.5372C32.4379 32.0628 32.0139 32.4905 31.4928 32.4905H24.6538V34.0725H31.4928C32.5807 34.0725 33.5102 33.3792 33.8655 32.4098L39.0424 29.7956C39.2656 29.6831 39.5216 29.6653 39.763 29.7452C40.0051 29.8254 40.2005 29.993 40.3154 30.2212C40.429 30.4438 40.4481 30.699 40.3693 30.94Z"/>
</mask>
<path d="M41.7265 29.5061C41.4239 28.9047 40.9032 28.4563 40.2604 28.2435C39.6169 28.0303 38.9315 28.0799 38.3298 28.3832L33.8559 30.6424C33.494 29.6884 32.5715 29.0084 31.4928 29.0084H28.4796C27.2767 27.8683 25.588 27.2207 23.7889 27.2207C22.6541 27.2207 21.3975 27.68 20.0682 28.1993V27.1438H15V39.5601H20.0683V37.0862L30.6398 39.0758L40.644 32.8867C41.2302 32.5804 41.6659 32.0651 41.873 31.4316C42.0836 30.7875 42.0307 30.1022 41.7265 29.5061ZM18.4863 37.9781H16.582V28.7258H18.4863V37.9781ZM40.3693 30.94C40.2901 31.1824 40.1229 31.3781 39.8985 31.4912L39.8677 31.5067L30.3294 37.4076L20.0683 35.4764V29.8985C20.1502 29.8664 20.2325 29.8341 20.3135 29.8024C21.6795 29.2659 22.8592 28.8027 23.789 28.8027C25.2798 28.8027 26.6593 29.363 27.5735 30.3399L27.808 30.5904H31.4928C32.0139 30.5904 32.4379 31.0151 32.4379 31.5372C32.4379 32.0628 32.0139 32.4905 31.4928 32.4905H24.6538V34.0725H31.4928C32.5807 34.0725 33.5102 33.3792 33.8655 32.4098L39.0424 29.7956C39.2656 29.6831 39.5216 29.6653 39.763 29.7452C40.0051 29.8254 40.2005 29.993 40.3154 30.2212C40.429 30.4438 40.4481 30.699 40.3693 30.94Z" fill="white"/>
<path d="M40.2604 28.2435L39.6316 30.142L39.6318 30.1421L40.2604 28.2435ZM38.3298 28.3832L37.4295 26.5973L37.4283 26.598L38.3298 28.3832ZM33.8559 30.6424L31.986 31.3519L32.7742 33.4292L34.7574 32.4277L33.8559 30.6424ZM28.4796 29.0084L27.1037 30.4599L27.6823 31.0084H28.4796V29.0084ZM20.0682 28.1993H18.0682V31.128L20.796 30.0622L20.0682 28.1993ZM20.0682 27.1438H22.0682V25.1438H20.0682V27.1438ZM15 27.1438V25.1438H13V27.1438H15ZM15 39.5601H13V41.5601H15V39.5601ZM20.0683 39.5601V41.5601H22.0683V39.5601H20.0683ZM20.0683 37.0862L20.4382 35.1207L18.0683 34.6747V37.0862H20.0683ZM30.6398 39.0758L30.2699 41.0413L31.0323 41.1847L31.692 40.7766L30.6398 39.0758ZM40.644 32.8867L39.7179 31.1141L39.6535 31.1477L39.5918 31.1858L40.644 32.8867ZM41.873 31.4316L39.972 30.81L39.972 30.8102L41.873 31.4316ZM18.4863 37.9781V39.9781H20.4863V37.9781H18.4863ZM16.582 37.9781H14.582V39.9781H16.582V37.9781ZM16.582 28.7258V26.7258H14.582V28.7258H16.582ZM18.4863 28.7258H20.4863V26.7258H18.4863V28.7258ZM39.8985 31.4912L40.7978 33.2776L40.7985 33.2773L39.8985 31.4912ZM39.8677 31.5067L38.9684 29.7203L38.8901 29.7597L38.8155 29.8058L39.8677 31.5067ZM30.3294 37.4076L29.9594 39.3731L30.7218 39.5166L31.3816 39.1084L30.3294 37.4076ZM20.0683 35.4764H18.0683V37.1351L19.6983 37.4419L20.0683 35.4764ZM20.0683 29.8985L19.3399 28.0358L18.0683 28.533V29.8985H20.0683ZM20.3135 29.8024L21.0433 31.6645L21.0445 31.664L20.3135 29.8024ZM27.5735 30.3399L26.1133 31.7065L26.1134 31.7066L27.5735 30.3399ZM27.808 30.5904L26.3478 31.9571L26.9406 32.5904H27.808V30.5904ZM24.6538 32.4905V30.4905H22.6538V32.4905H24.6538ZM24.6538 34.0725H22.6538V36.0725H24.6538V34.0725ZM33.8655 32.4098L32.964 30.6245L32.2594 30.9803L31.9877 31.7215L33.8655 32.4098ZM39.0424 29.7956L38.1422 28.0097L38.1409 28.0103L39.0424 29.7956ZM39.763 29.7452L40.3918 27.8466L40.3916 27.8466L39.763 29.7452ZM40.3154 30.2212L38.5289 31.1205L38.534 31.1305L40.3154 30.2212ZM43.5131 28.6071C42.9707 27.5292 42.0318 26.7232 40.889 26.3448L39.6318 30.1421C39.7747 30.1894 39.8771 30.2803 39.9399 30.405L43.5131 28.6071ZM40.8893 26.3449C39.7448 25.9658 38.5089 26.0532 37.4295 26.5973L39.2301 30.1691C39.354 30.1067 39.489 30.0948 39.6316 30.142L40.8893 26.3449ZM37.4283 26.598L32.9544 28.8571L34.7574 32.4277L39.2313 30.1685L37.4283 26.598ZM35.7259 29.9329C35.0802 28.2312 33.433 27.0084 31.4928 27.0084V31.0084C31.71 31.0084 31.9078 31.1457 31.986 31.3519L35.7259 29.9329ZM31.4928 27.0084H28.4796V31.0084H31.4928V27.0084ZM29.8554 27.5568C28.2511 26.0361 26.0571 25.2207 23.7889 25.2207V29.2207C25.1189 29.2207 26.3024 29.7004 27.1037 30.4599L29.8554 27.5568ZM23.7889 25.2207C22.2126 25.2207 20.6014 25.8438 19.3404 26.3365L20.796 30.0622C22.1935 29.5162 23.0956 29.2207 23.7889 29.2207V25.2207ZM22.0682 28.1993V27.1438H18.0682V28.1993H22.0682ZM20.0682 25.1438H15V29.1438H20.0682V25.1438ZM13 27.1438V39.5601H17V27.1438H13ZM15 41.5601H20.0683V37.5601H15V41.5601ZM22.0683 39.5601V37.0862H18.0683V39.5601H22.0683ZM19.6983 39.0517L30.2699 41.0413L31.0097 37.1103L20.4382 35.1207L19.6983 39.0517ZM31.692 40.7766L41.6963 34.5875L39.5918 31.1858L29.5876 37.3749L31.692 40.7766ZM41.5702 34.6593C42.6221 34.1097 43.4057 33.1795 43.774 32.053L39.972 30.8102C39.9261 30.9506 39.8383 31.0511 39.7179 31.1141L41.5702 34.6593ZM43.7739 32.0532C44.1484 30.908 44.0564 29.6715 43.5079 28.5969L39.9451 30.4153C40.0051 30.5329 40.0188 30.6669 39.972 30.81L43.7739 32.0532ZM18.4863 35.9781H16.582V39.9781H18.4863V35.9781ZM18.582 37.9781V28.7258H14.582V37.9781H18.582ZM16.582 30.7258H18.4863V26.7258H16.582V30.7258ZM16.4863 28.7258V37.9781H20.4863V28.7258H16.4863ZM38.4683 30.3187C38.5517 30.0634 38.7397 29.8355 38.9986 29.7051L40.7985 33.2773C41.5061 32.9207 42.0285 32.3013 42.2704 31.5613L38.4683 30.3187ZM38.9992 29.7048L38.9684 29.7203L40.767 33.2931L40.7978 33.2776L38.9992 29.7048ZM38.8155 29.8058L29.2771 35.7067L31.3816 39.1084L40.9199 33.2075L38.8155 29.8058ZM30.6993 35.4421L20.4382 33.5109L19.6983 37.4419L29.9594 39.3731L30.6993 35.4421ZM22.0683 35.4764V29.8985H18.0683V35.4764H22.0683ZM20.7966 31.7611C20.8795 31.7287 20.9637 31.6957 21.0433 31.6645L19.5837 27.9403C19.5012 27.9726 19.421 28.0041 19.3399 28.0358L20.7966 31.7611ZM21.0445 31.664C21.745 31.3889 22.3122 31.1672 22.8144 31.0094C23.3268 30.8484 23.6262 30.8027 23.789 30.8027V26.8027C23.022 26.8027 22.2667 26.9886 21.6152 27.1934C20.9536 27.4013 20.248 27.6794 19.5824 27.9408L21.0445 31.664ZM23.789 30.8027C24.7964 30.8027 25.6224 31.182 26.1133 31.7065L29.0338 28.9733C27.6961 27.5439 25.7633 26.8027 23.789 26.8027V30.8027ZM26.1134 31.7066L26.3478 31.9571L29.2681 29.2236L29.0337 28.9732L26.1134 31.7066ZM27.808 32.5904H31.4928V28.5904H27.808V32.5904ZM31.4928 32.5904C30.9059 32.5904 30.4379 32.1162 30.4379 31.5372H34.4379C34.4379 29.914 33.122 28.5904 31.4928 28.5904V32.5904ZM30.4379 31.5372C30.4379 30.9747 30.893 30.4905 31.4928 30.4905V34.4905C33.1349 34.4905 34.4379 33.151 34.4379 31.5372H30.4379ZM31.4928 30.4905H24.6538V34.4905H31.4928V30.4905ZM22.6538 32.4905V34.0725H26.6538V32.4905H22.6538ZM24.6538 36.0725H31.4928V32.0725H24.6538V36.0725ZM31.4928 36.0725C33.452 36.0725 35.1105 34.8247 35.7434 33.0981L31.9877 31.7215C31.9099 31.9336 31.7094 32.0725 31.4928 32.0725V36.0725ZM34.767 34.1951L39.9439 31.5809L38.1409 28.0103L32.964 30.6245L34.767 34.1951ZM39.9426 31.5816C39.6817 31.7131 39.387 31.7275 39.1344 31.6439L40.3916 27.8466C39.6562 27.6031 38.8495 27.6532 38.1422 28.0097L39.9426 31.5816ZM39.1343 31.6438C38.8772 31.5587 38.6541 31.3691 38.5289 31.1204L42.1018 29.322C41.7468 28.6168 41.133 28.0921 40.3918 27.8466L39.1343 31.6438ZM38.534 31.1305C38.4016 30.871 38.3846 30.5748 38.4683 30.3187L42.2703 31.5614C42.5116 30.8232 42.4563 30.0165 42.0967 29.312L38.534 31.1305Z" fill="white" mask="url(#path-2-inside-1)"/>
<mask id="path-4-inside-2" fill="white">
<path d="M27.2167 23.5235C27.6468 23.6503 28.0995 23.7138 28.5532 23.7138C28.7244 23.7138 28.8957 23.7046 29.066 23.6865C29.0988 23.7841 29.1346 23.8806 29.1742 23.9756C29.5541 24.8862 30.246 25.6337 31.1751 26.1373C32.003 26.586 32.9782 26.8232 33.9954 26.8232C35.0126 26.8232 35.9878 26.586 36.8156 26.1373C37.7448 25.6337 38.4367 24.8862 38.8166 23.9756C39.3317 22.7409 39.2664 21.2958 38.6228 19.6804C37.9296 17.9407 36.5619 16.0322 34.5574 14.0077L33.9954 13.4401L33.4333 14.0077C32.5802 14.8693 31.843 15.7098 31.2236 16.5253C30.6847 15.7186 29.9818 14.8759 29.1222 14.0077L28.5602 13.44L27.998 14.0078C23.8429 18.2046 24.3727 20.7661 25.0584 21.9196C25.5082 22.6761 26.2747 23.2457 27.2167 23.5235ZM33.9954 15.7038C35.5424 17.3537 36.6033 18.8859 37.1532 20.266C37.6384 21.4838 37.7069 22.527 37.3566 23.3667C36.7794 24.7503 35.1852 25.2413 33.9954 25.2413C32.8056 25.2413 31.2114 24.7503 30.6342 23.3667C30.284 22.527 30.3524 21.4838 30.8376 20.266C31.3875 18.8859 32.4484 17.3537 33.9954 15.7038ZM26.3786 19.0204C26.7206 18.0298 27.4532 16.9187 28.56 15.7104C29.281 16.4978 29.8453 17.2472 30.2465 17.949C29.8847 18.5425 29.5911 19.1203 29.368 19.6805C29.024 20.5435 28.8455 21.358 28.8321 22.1177C27.903 22.1933 26.877 21.883 26.4183 21.1112C26.0987 20.5734 26.0853 19.87 26.3786 19.0204Z"/>
</mask>
<path d="M27.2167 23.5235C27.6468 23.6503 28.0995 23.7138 28.5532 23.7138C28.7244 23.7138 28.8957 23.7046 29.066 23.6865C29.0988 23.7841 29.1346 23.8806 29.1742 23.9756C29.5541 24.8862 30.246 25.6337 31.1751 26.1373C32.003 26.586 32.9782 26.8232 33.9954 26.8232C35.0126 26.8232 35.9878 26.586 36.8156 26.1373C37.7448 25.6337 38.4367 24.8862 38.8166 23.9756C39.3317 22.7409 39.2664 21.2958 38.6228 19.6804C37.9296 17.9407 36.5619 16.0322 34.5574 14.0077L33.9954 13.4401L33.4333 14.0077C32.5802 14.8693 31.843 15.7098 31.2236 16.5253C30.6847 15.7186 29.9818 14.8759 29.1222 14.0077L28.5602 13.44L27.998 14.0078C23.8429 18.2046 24.3727 20.7661 25.0584 21.9196C25.5082 22.6761 26.2747 23.2457 27.2167 23.5235ZM33.9954 15.7038C35.5424 17.3537 36.6033 18.8859 37.1532 20.266C37.6384 21.4838 37.7069 22.527 37.3566 23.3667C36.7794 24.7503 35.1852 25.2413 33.9954 25.2413C32.8056 25.2413 31.2114 24.7503 30.6342 23.3667C30.284 22.527 30.3524 21.4838 30.8376 20.266C31.3875 18.8859 32.4484 17.3537 33.9954 15.7038ZM26.3786 19.0204C26.7206 18.0298 27.4532 16.9187 28.56 15.7104C29.281 16.4978 29.8453 17.2472 30.2465 17.949C29.8847 18.5425 29.5911 19.1203 29.368 19.6805C29.024 20.5435 28.8455 21.358 28.8321 22.1177C27.903 22.1933 26.877 21.883 26.4183 21.1112C26.0987 20.5734 26.0853 19.87 26.3786 19.0204Z" fill="white"/>
<path d="M29.066 23.6865L30.9619 23.0497L30.4507 21.5276L28.8541 21.6977L29.066 23.6865ZM29.1742 23.9756L27.3283 24.7455L27.3284 24.7456L29.1742 23.9756ZM31.1751 26.1373L30.2221 27.8957L30.2221 27.8957L31.1751 26.1373ZM36.8156 26.1373L37.7687 27.8957L37.7687 27.8957L36.8156 26.1373ZM38.8166 23.9756L36.9707 23.2056L36.9707 23.2056L38.8166 23.9756ZM38.6228 19.6804L40.4807 18.9401L40.4807 18.9401L38.6228 19.6804ZM34.5574 14.0077L35.9787 12.6005L35.9786 12.6005L34.5574 14.0077ZM33.9954 13.4401L35.4166 12.0329L33.9955 10.5976L32.5743 12.0328L33.9954 13.4401ZM33.4333 14.0077L32.0122 12.6005L32.0121 12.6006L33.4333 14.0077ZM31.2236 16.5253L29.5605 17.6362L31.1191 19.9693L32.8162 17.735L31.2236 16.5253ZM29.1222 14.0077L30.5435 12.6006L30.5435 12.6006L29.1222 14.0077ZM28.5602 13.44L29.9814 12.0329L28.5602 10.5973L27.1389 12.0329L28.5602 13.44ZM27.998 14.0078L26.5768 12.6006L26.5768 12.6006L27.998 14.0078ZM25.0584 21.9196L23.3393 22.9416L23.3393 22.9416L25.0584 21.9196ZM37.1532 20.266L39.0112 19.5258L39.0112 19.5257L37.1532 20.266ZM37.3566 23.3667L35.5108 22.5966L35.5107 22.5967L37.3566 23.3667ZM30.6342 23.3667L32.4801 22.5967L32.4801 22.5967L30.6342 23.3667ZM30.8376 20.266L28.9797 19.5257L28.9796 19.5258L30.8376 20.266ZM28.56 15.7104L30.0352 14.3598L28.5604 12.7491L27.0853 14.3594L28.56 15.7104ZM30.2465 17.949L31.9542 18.9901L32.569 17.9817L31.9828 16.9564L30.2465 17.949ZM29.368 19.6805L31.2259 20.4209L31.226 20.4206L29.368 19.6805ZM28.8321 22.1177L28.9943 24.1111L30.7999 23.9641L30.8318 22.1529L28.8321 22.1177ZM26.4183 21.1112L24.699 22.133L24.6991 22.1331L26.4183 21.1112ZM26.651 25.4418C27.2713 25.6247 27.9149 25.7138 28.5532 25.7138V21.7138C28.2842 21.7138 28.0223 21.6759 27.7824 21.6052L26.651 25.4418ZM28.5532 25.7138C28.7958 25.7138 29.0378 25.7008 29.2778 25.6752L28.8541 21.6977C28.7536 21.7084 28.653 21.7138 28.5532 21.7138V25.7138ZM27.17 24.3232C27.2161 24.4605 27.2684 24.6018 27.3283 24.7455L31.0201 23.2058C31.0008 23.1594 30.9814 23.1077 30.9619 23.0497L27.17 24.3232ZM27.3284 24.7456C27.8971 26.1091 28.9219 27.1909 30.2221 27.8957L32.1282 24.379C31.57 24.0765 31.211 23.6633 31.0201 23.2057L27.3284 24.7456ZM30.2221 27.8957C31.3658 28.5156 32.6729 28.8232 33.9954 28.8232V24.8232C33.2836 24.8232 32.6402 24.6565 32.1282 24.379L30.2221 27.8957ZM33.9954 28.8232C35.3179 28.8232 36.625 28.5156 37.7687 27.8957L35.8626 24.379C35.3506 24.6565 34.7072 24.8232 33.9954 24.8232V28.8232ZM37.7687 27.8957C39.069 27.1909 40.0937 26.1091 40.6624 24.7456L36.9707 23.2056C36.7798 23.6633 36.4207 24.0765 35.8626 24.379L37.7687 27.8957ZM40.6624 24.7457C41.4338 22.8965 41.2576 20.8899 40.4807 18.9401L36.7648 20.4207C37.2753 21.7017 37.2295 22.5853 36.9707 23.2056L40.6624 24.7457ZM40.4807 18.9401C39.6503 16.8559 38.0833 14.7261 35.9787 12.6005L33.1362 15.4148C35.0405 17.3382 36.209 19.0256 36.7648 20.4207L40.4807 18.9401ZM35.9786 12.6005L35.4166 12.0329L32.5742 14.8473L33.1362 15.4149L35.9786 12.6005ZM32.5743 12.0328L32.0122 12.6005L34.8544 15.415L35.4166 14.8473L32.5743 12.0328ZM32.0121 12.6006C31.108 13.5137 30.3113 14.4197 29.6309 15.3155L32.8162 17.735C33.3747 16.9998 34.0525 16.2249 34.8545 15.4149L32.0121 12.6006ZM32.8866 15.4143C32.2616 14.4788 31.4715 13.5379 30.5435 12.6006L27.701 15.4148C28.4921 16.2139 29.1077 16.9585 29.5605 17.6362L32.8866 15.4143ZM30.5435 12.6006L29.9814 12.0329L27.1389 14.8471L27.701 15.4149L30.5435 12.6006ZM27.1389 12.0329L26.5768 12.6006L29.4193 15.4149L29.9814 14.8471L27.1389 12.0329ZM26.5768 12.6006C24.3436 14.8563 23.1768 16.8618 22.7639 18.6565C22.3367 20.5128 22.7584 21.9645 23.3393 22.9416L26.7776 20.8976C26.6727 20.7212 26.4867 20.3154 26.662 19.5534C26.8515 18.7298 27.4974 17.3561 29.4193 15.4149L26.5768 12.6006ZM23.3393 22.9416C24.0773 24.183 25.2859 25.0393 26.651 25.4418L27.7824 21.6052C27.2635 21.4522 26.939 21.1691 26.7775 20.8975L23.3393 22.9416ZM32.5365 17.0718C33.9929 18.6251 34.8733 19.9473 35.2953 21.0063L39.0112 19.5257C38.3334 17.8245 37.092 16.0823 35.4544 14.3358L32.5365 17.0718ZM35.2953 21.0062C35.6724 21.9527 35.5856 22.4171 35.5108 22.5966L39.2024 24.1367C39.8281 22.6369 39.6045 21.0149 39.0112 19.5258L35.2953 21.0062ZM35.5107 22.5967C35.4559 22.7281 35.3353 22.879 35.0441 23.018C34.7363 23.1649 34.3432 23.2413 33.9954 23.2413V27.2413C35.4888 27.2413 38.1582 26.64 39.2024 24.1366L35.5107 22.5967ZM33.9954 23.2413C33.6476 23.2413 33.2545 23.1649 32.9467 23.018C32.6555 22.879 32.5349 22.7281 32.4801 22.5967L28.7884 24.1366C29.8326 26.64 32.502 27.2413 33.9954 27.2413V23.2413ZM32.4801 22.5967C32.4052 22.4172 32.3185 21.9527 32.6956 21.0062L28.9796 19.5258C28.3863 21.015 28.1628 22.6369 28.7884 24.1366L32.4801 22.5967ZM32.6955 21.0063C33.1175 19.9473 33.998 18.6251 35.4544 17.0718L32.5365 14.3358C30.8989 16.0823 29.6575 17.8245 28.9797 19.5257L32.6955 21.0063ZM28.2691 19.6731C28.4857 19.0459 29.0195 18.1697 30.0348 17.0613L27.0853 14.3594C25.8869 15.6677 24.9556 17.0136 24.4881 18.3678L28.2691 19.6731ZM27.0849 17.0609C27.7353 17.7713 28.2015 18.4015 28.5103 18.9417L31.9828 16.9564C31.4891 16.0929 30.8266 15.2243 30.0352 14.3598L27.0849 17.0609ZM28.5389 16.9079C28.1279 17.5821 27.7808 18.2604 27.5099 18.9404L31.226 20.4206C31.4014 19.9801 31.6416 19.5029 31.9542 18.9901L28.5389 16.9079ZM27.5101 18.9401C27.0954 19.9805 26.8509 21.035 26.8324 22.0824L30.8318 22.1529C30.8401 21.6809 30.9526 21.1065 31.2259 20.4209L27.5101 18.9401ZM28.6699 20.1243C28.4684 20.1407 28.2834 20.1101 28.1638 20.0644C28.0474 20.0198 28.0845 20.0002 28.1375 20.0892L24.6991 22.1331C25.7102 23.8341 27.682 24.2179 28.9943 24.1111L28.6699 20.1243ZM28.1375 20.0894C28.1755 20.1532 28.1691 20.19 28.1682 20.1448C28.1671 20.0861 28.1785 19.9355 28.2691 19.6732L24.4881 18.3677C24.0893 19.5228 23.9655 20.8988 24.699 22.133L28.1375 20.0894Z" fill="white" mask="url(#path-4-inside-2)"/>
</g>
<defs>
<filter id="filter0_d" x="0" y="0" width="58" height="58" filterUnits="userSpaceOnUse" color-interpolation-filters="sRGB">
<feFlood flood-opacity="0" result="BackgroundImageFix"/>
<feColorMatrix in="SourceAlpha" type="matrix" values="0 0 0 0 0 0 0 0 0 0 0 0 0 0 0 0 0 0 127 0"/>
<feOffset dx="1" dy="2"/>
<feGaussianBlur stdDeviation="2"/>
<feColorMatrix type="matrix" values="0 0 0 0 0 0 0 0 0 0 0 0 0 0 0 0 0 0 0.25 0"/>
<feBlend mode="normal" in2="BackgroundImageFix" result="effect1_dropShadow"/>
<feBlend mode="normal" in="SourceGraphic" in2="effect1_dropShadow" result="shape"/>
</filter>
</defs>
</svg>
