<?xml version="1.0"?>
<svg xmlns="http://www.w3.org/2000/svg" id="Capa_1" enable-background="new 0 0 473.415 473.415" height="512px"
     viewBox="0 0 473.415 413.415" width="512px" class="">
    <g>
        <link xmlns="" type="text/css" rel="stylesheet" id="dark-mode-general-link" class="active-path" style=""/>
        <link xmlns="" type="text/css" rel="stylesheet" id="dark-mode-custom-link" class="active-path"/>
        <style xmlns="" type="text/css" id="dark-mode-custom-style" class="active-path"/>
        <path d="m14.796 266.296h44.382v131.567c2.187 1.053 4.48 2.102 6.559 3.141 7.417 3.717 14.42 7.103 23.029 9.546v-159.049c0-8.177-6.617-14.794-14.794-14.794h-25.022l187.758-200.284 187.758 200.284h-25.023c-8.177 0-14.794 6.617-14.794 14.794v159.013c8.558-2.442 15.522-5.817 22.914-9.512 2.115-1.058 4.446-2.122 6.675-3.193v-131.513h44.382c5.895 0 11.226-3.496 13.581-8.914 2.34-5.403 1.242-11.702-2.788-15.993l-55.175-58.853v-152.946h-88.765v58.263l-77.973-83.17c-2.808-2.996-6.814-4.686-10.816-4.681-3.987.005-7.971 1.696-10.769 4.681l-221.911 236.706c-4.031 4.291-5.129 10.59-2.788 15.993 2.354 5.418 7.686 8.914 13.58 8.914zm340.265-207.118h29.588v91.797l-29.588-31.56z"
              data-original="#000000" class="active-path" fill="#FFFFFF"/>
    </g>
</svg>
