<svg width="17" height="17" viewBox="0 0 17 17" fill="none" xmlns="http://www.w3.org/2000/svg">
<g clip-path="url(#clip0)">
<path d="M2.38433 14.6156L0.738488 12.9698L0.00297237 16.8076C-0.0185433 16.9199 0.0800368 17.0185 0.19233 16.997L4.03018 16.2615L2.38433 14.6156Z" fill="#F9F3F1"/>
<path d="M4.03039 16.2613L0.19244 16.997C0.0799148 17.0185 -0.0185657 16.92 0.00298311 16.8075L0.0419636 16.6044C0.0717136 16.6187 0.10661 16.6242 0.142868 16.6174L3.70414 15.9351L4.03039 16.2613Z" fill="#EFE2DD"/>
<path d="M0.00297237 16.8076L0.312392 15.193L1.80686 16.6875L0.19233 16.997C0.0800368 17.0185 -0.0185433 16.9199 0.00297237 16.8076Z" fill="#F47C7C"/>
<path d="M1.80704 16.6875L0.19244 16.997C0.0799147 17.0185 -0.0185657 16.92 0.00298311 16.8075L0.0419636 16.6044C0.0717136 16.6188 0.10661 16.6242 0.142868 16.6174L1.48079 16.3612L1.80704 16.6875Z" fill="#EE6161"/>
<path d="M4.0302 16.2614L3.03043 15.8122C2.9429 15.7728 2.87285 15.7028 2.8335 15.6152L2.38423 14.6155L1.38459 14.1663C1.29707 14.127 1.22697 14.0569 1.18763 13.9694L0.738525 12.9697L11.6971 2.0112L14.9888 5.30288L4.0302 16.2614Z" fill="#F9B1B1"/>
<path d="M15.9822 4.30937L12.6906 1.01768L13.3745 0.333697C13.8194 -0.111192 14.5408 -0.111192 14.9857 0.333697L16.6663 2.01427C17.1111 2.45916 17.1111 3.1805 16.6663 3.62542L15.9822 4.30937Z" fill="#F9F3F1"/>
<path d="M16.6663 3.62543L16.0172 4.27455L15.578 3.83541L16.2268 3.18629C16.6718 2.74133 16.6718 2.02006 16.2268 1.5751L16.6663 2.01425C17.1112 2.4592 17.1112 3.18048 16.6663 3.62543Z" fill="#EFE2DD"/>
<path d="M12.7246 0.981232L16.0158 4.27244L14.8855 5.40275L11.5943 2.11153L12.7246 0.981232Z" fill="#766E6E"/>
<path d="M15.5769 3.83334L16.0159 4.27237L14.8856 5.40267L14.4466 4.96365L15.5769 3.83334Z" fill="#5B5555"/>
<path d="M14.8868 5.40487L4.03034 16.2614L3.42432 15.9891L14.4477 4.96576L14.8868 5.40487Z" fill="#F79595"/>
<path d="M2.38426 14.6155L1.38462 14.1663C1.2971 14.127 1.22701 14.0569 1.18766 13.9694L0.738525 12.9697L11.5951 2.11319L13.2409 3.75903L2.38426 14.6155Z" fill="#F47C7C"/>
<path d="M13.2409 3.75914L2.38438 14.6156L1.71643 14.3153L12.7569 3.27521L13.2409 3.75914Z" fill="#EE6161"/>
</g>
<defs>
<clipPath id="clip0">
<rect width="17" height="17" fill="white"/>
</clipPath>
</defs>
</svg>
