<?xml version="1.0" encoding="utf-8"?>
<!-- Generator: Adobe Illustrator 23.0.2, SVG Export Plug-In . SVG Version: 6.00 Build 0)  -->
<svg version="1.1" id="Capa_1" xmlns="http://www.w3.org/2000/svg" xmlns:xlink="http://www.w3.org/1999/xlink" x="0px" y="0px"
	 viewBox="0 0 512 512" style="enable-background:new 0 0 512 512;" xml:space="preserve">
<style type="text/css">
	.st0{fill:#FFFFFF;}
</style>
<g>
	<link  class="active-path" id="dark-mode-general-link" rel="stylesheet" style="" type="text/css" xmlns=""></link>
	<link  class="active-path" id="dark-mode-custom-link" rel="stylesheet" type="text/css" xmlns=""></link>
	<g>
		<path class="st0" d="M296,110c-19.9,0-32.5,11.3-40,22.3c-7.5-11-20.1-22.3-40-22.3c-29,0-50,24.3-50,53.8
			c0,32.4,25,53.7,62.8,85.9c6.6,5.6,13.4,11.4,20.6,17.7c1.9,1.6,4.2,2.5,6.6,2.5c2.3,0,4.7-0.8,6.6-2.5c7.2-6.3,14-12.1,20.6-17.7
			c37.8-32.2,62.8-53.5,62.8-85.9C346,134.3,325,110,296,110L296,110z M270.3,234.6c-4.6,3.9-9.3,8-14.3,12.2
			c-4.9-4.2-9.6-8.3-14.3-12.2C207,204.9,186,187.1,186,163.8c0-19.3,12.9-33.8,30-33.8c22.3,0,30,26.5,30.4,27.7
			c1.2,4.3,5.1,7.3,9.6,7.3c4.5,0,8.5-3,9.6-7.4c0.1-0.3,7.8-27.6,30.4-27.6c17.1,0,30,14.5,30,33.8
			C326,187.1,305,204.9,270.3,234.6z"/>
		<circle class="st0" cx="368" cy="56" r="10"/>
		<path class="st0" d="M386.8,96.5c15.8,31.4,18.9,57,19.2,73.5c1.1,66.4-41.9,121.3-126.1,227.3c-9.9,12.5-18.3,22.6-23.9,29.2
			c-5.2-6.2-12.8-15.3-21.7-26.6C233.6,398.3,106,245.3,106,170c0-73,76.2-147.9,150-150c34.9-1,64.6,14.4,71.2,17.9
			C362.3,56.8,380,84.6,386.8,96.5z M336.7,20.3C318.1,10.1,289.9-1.5,256,0C172.1,3.7,86,84.2,86,170
			c0,65.5,79.9,174.7,119.9,226.4l0,0C173.4,402.3,126,419,126,452c0,34.2,55.9,60,130,60s130-25.8,130-60
			c0-33.1-47.5-49.7-79.9-55.6c81-77,122.7-164.3,119.9-226.4c-2.2-48.4-21.8-83.3-21.8-83.3c-15.3-27.3-35-43.9-41-48.7
			C358.8,34.3,349.4,27.3,336.7,20.3z M256,452L256,452c2.9,0,5.6-1.3,7.5-3.4c0.1-0.1,11.7-13.4,28.3-34.2
			c46.5,6.3,74.1,23.8,74.1,37.6c0,28.5-76.7,40-110,40c-45.3,0-110-15.2-110-40c0-13.9,27.6-31.3,74.1-37.6
			c16.6,20.8,28.2,34.1,28.3,34.2C250.4,450.7,253.1,452,256,452L256,452z M523.2,87.8"/>
	</g>
</g>
</svg>
