<svg width="30" height="30" viewBox="0 0 30 30" fill="none" xmlns="http://www.w3.org/2000/svg">
<g clip-path="url(#clip0)">
<path d="M28.5338 15.0593C28.5279 15.0651 28.5528 15.0593 28.4593 15.0593C27.4743 15.0593 26.7935 15.9727 27.1368 16.8238C26.9715 16.9981 27.6849 16.285 15.6202 28.2865C15.2766 28.6278 14.7239 28.6284 14.3797 28.2865C2.31871 16.288 3.03011 16.9998 2.86315 16.8238C3.22005 15.9389 2.47395 15.0119 1.46732 15.0611C1.46674 15.0604 1.46674 15.0598 1.46615 15.0593C0.467731 13.4993 -0.0334427 11.8068 0.00173145 10.0698C0.138031 3.25217 8.45749 -1.77475 15 3.94773C21.5388 -1.77159 29.8619 3.24859 29.9983 10.0698C30.0334 11.8068 29.5322 13.4993 28.5338 15.0593Z" fill="#FF405C"/>
<path d="M28.5338 15.0593C28.5279 15.0651 28.5528 15.0593 28.4594 15.0593C27.4744 15.0593 26.7935 15.9727 27.1368 16.8238C26.9715 16.9981 27.6849 16.285 15.6202 28.2865C15.4484 28.4571 15.2245 28.5427 14.9999 28.5427V3.94774C19.0728 0.385412 24.1544 0.840391 27.3912 4.07612C30.2695 6.95437 30.9329 11.3107 28.5338 15.0593Z" fill="#C30047"/>
<path d="M28.5338 15.0592C28.1452 15.6672 27.6809 16.2552 27.1427 16.818H20.6279C20.3043 16.818 20.0071 16.6403 19.8535 16.3554L17.3954 11.7898L13.919 19.1289C13.6247 19.7503 12.7546 19.811 12.3825 19.2245L9.86344 15.2662L9.18809 16.3911C9.02922 16.6562 8.74314 16.8179 8.43419 16.8179H2.85733C2.31916 16.2551 1.85486 15.6671 1.46619 15.0592H7.93648L9.08726 13.141C9.42001 12.5851 10.2292 12.5653 10.5827 13.1217L13.0109 16.9369L16.55 9.46531C16.8599 8.81382 17.7774 8.79166 18.1194 9.42486L21.1532 15.0592H28.5338V15.0592Z" fill="#E1F3FF"/>
<path d="M18.1194 9.42492C17.778 8.79302 16.8604 8.81278 16.55 9.46537L15 12.7376V16.8467L17.3954 11.7898L19.8535 16.3554C20.007 16.6402 20.3043 16.8179 20.6279 16.8179H27.1427C27.6809 16.2551 28.1452 15.6672 28.5339 15.0592H21.1531L18.1194 9.42492Z" fill="#B1D5F1"/>
</g>
<defs>
<clipPath id="clip0">
<rect width="30" height="30" fill="white"/>
</clipPath>
</defs>
</svg>
