<svg width="35" height="35" viewBox="0 0 35 35" fill="none" xmlns="http://www.w3.org/2000/svg">
<path d="M9.60306 12.2719C10.6312 13.3 11.8507 13.9453 12.9718 14.1477C12.9609 14.175 12.9499 14.1969 12.939 14.2242C12.8187 14.2188 12.6984 14.2188 12.5781 14.2188C10.3906 14.2188 8.38353 14.6945 6.67728 15.5312C5.53978 16.0891 4.539 16.8109 3.71321 17.6641C2.50462 16.0836 1.6679 14.2844 1.30696 12.4578C0.639776 9.14375 1.53118 5.96641 3.7515 3.75156C5.38118 2.12188 7.57962 1.18672 9.97493 1.10469C10.0952 1.09375 10.221 1.09375 10.3413 1.09375C13.4476 1.09375 16.6359 2.50469 19.0968 4.96563C19.9499 5.81875 20.6882 6.77578 21.2788 7.7875C19.3593 8.08281 17.5984 8.88672 16.1437 10.0461C15.8374 9.14922 15.2632 8.225 14.4538 7.41563C12.4468 5.40859 9.72884 4.86172 8.389 6.20156C7.04915 7.54141 7.59056 10.2594 9.60306 12.2719Z" fill="white"/>
<path d="M14.4538 7.41561C15.2632 8.22499 15.8374 9.14921 16.1436 10.0461C14.7819 11.1344 13.6882 12.5398 12.9718 14.1476C11.8507 13.9453 10.6311 13.3 9.60301 12.2719C7.59051 10.2594 7.0491 7.54139 8.38894 6.20155C9.72879 4.86171 12.4468 5.40858 14.4538 7.41561Z" fill="white"/>
<path d="M23.8108 26.2062C23.9749 25.5227 24.0624 24.8062 24.0624 24.0625C24.0624 23.2695 23.964 22.5039 23.7726 21.7766H23.778C25.1999 21.4156 26.2499 20.125 26.2499 18.5938C26.2499 16.7836 24.7788 15.3125 22.9687 15.3125C21.8804 15.3125 20.9124 15.843 20.3163 16.6633C18.3858 15.1922 15.8265 14.2953 12.939 14.2242C12.9499 14.1969 12.9608 14.175 12.9718 14.1477C13.6882 12.5398 14.7819 11.1344 16.1437 10.0461C17.5983 8.88672 19.3593 8.08281 21.2788 7.7875C21.8312 7.7 22.3944 7.65625 22.9687 7.65625C29.0116 7.65625 33.9062 12.5508 33.9062 18.5938C33.9062 24.6367 29.0116 29.5312 22.9687 29.5312C22.728 29.5312 22.4929 29.5258 22.2577 29.5094C22.9905 28.525 23.521 27.4148 23.8108 26.2062Z" fill="#F4F4F4"/>
<path d="M26.25 18.5937C26.25 20.125 25.2 21.4156 23.7781 21.7766H23.7727C23.2531 19.7367 22.0281 17.9758 20.3164 16.6633C20.9125 15.843 21.8805 15.3125 22.9688 15.3125C24.7789 15.3125 26.25 16.7836 26.25 18.5937Z" fill="white"/>
<path d="M23.7719 21.7766C23.9633 22.5039 24.0618 23.2695 24.0618 24.0625C24.0618 24.8062 23.9743 25.5227 23.8102 26.2062C23.5204 27.4148 22.9899 28.525 22.2571 29.5094C20.25 32.1945 16.7391 33.9062 12.5774 33.9062C6.0313 33.9062 1.09302 29.6734 1.09302 24.0625C1.09302 21.5742 2.06099 19.3594 3.71255 17.6641C4.53833 16.8109 5.53911 16.0891 6.67661 15.5312C8.38286 14.6945 10.3899 14.2188 12.5774 14.2188C12.6977 14.2188 12.818 14.2188 12.9383 14.2242C15.8258 14.2953 18.3852 15.1922 20.3157 16.6633C22.0274 17.9758 23.2524 19.7367 23.7719 21.7766Z" fill="white"/>
<path d="M12.578 26.25C14.6922 26.25 16.4061 25.2706 16.4061 24.0625C16.4061 22.8544 14.6922 21.875 12.578 21.875C10.4638 21.875 8.74988 22.8544 8.74988 24.0625C8.74988 25.2706 10.4638 26.25 12.578 26.25Z" fill="#F4F4F4"/>
<path d="M16.9531 24.0625C16.9531 22.5291 15.0314 21.3281 12.5781 21.3281C10.1248 21.3281 8.20312 22.5291 8.20312 24.0625C8.20312 25.5959 10.1248 26.7969 12.5781 26.7969C15.0314 26.7969 16.9531 25.5959 16.9531 24.0625ZM9.29688 24.0625C9.29688 23.2865 10.6444 22.4219 12.5781 22.4219C14.5119 22.4219 15.8594 23.2865 15.8594 24.0625C15.8594 24.8385 14.5119 25.7031 12.5781 25.7031C10.6444 25.7031 9.29688 24.8385 9.29688 24.0625Z" fill="#707070"/>
<path d="M4.92188 24.0625H3.82812C3.82812 26.1893 4.85461 28.0952 6.71891 29.429L7.35547 28.5392C5.78594 27.417 4.92188 25.8267 4.92188 24.0625Z" fill="#707070"/>
<path d="M20.2343 24.0625C20.2343 27.492 16.9427 30.0781 12.5781 30.0781C11.48 30.0781 10.4338 29.9163 9.46801 29.598L9.12512 30.6359C10.2014 30.992 11.3629 31.1719 12.5781 31.1719C17.5661 31.1719 21.3281 28.1154 21.3281 24.0625H20.2343Z" fill="#707070"/>
<path d="M22.9687 7.10938C22.4924 7.10938 22.0221 7.14547 21.5572 7.20289C20.9715 6.25789 20.2792 5.37359 19.4829 4.57734C16.9214 2.01633 13.5898 0.546875 10.3425 0.546875C10.0783 0.546875 9.81693 0.559453 9.55881 0.583516C7.17881 0.759063 5.00061 1.72594 3.36271 3.36383C1.01389 5.71211 0.0683395 9.06664 0.767793 12.5672C1.11889 14.3232 1.89436 16.0628 3.00998 17.628C1.45904 19.3747 0.546855 21.5879 0.546855 24.0625C0.546855 29.9862 5.7192 34.4531 12.5781 34.4531C16.8054 34.4531 20.3869 32.7523 22.517 30.0634C22.6674 30.0694 22.8167 30.0781 22.9687 30.0781C29.301 30.0781 34.4531 24.926 34.4531 18.5938C34.4531 12.2609 29.301 7.10938 22.9687 7.10938ZM3.34029 5.06078C2.72396 6.52586 2.56537 8.21133 2.91318 9.95148C2.95201 10.1451 2.99686 10.3381 3.04771 10.5301L4.10537 10.2506C4.05998 10.0795 4.02061 9.90719 3.98561 9.73602C3.50436 7.33031 4.12342 5.05586 5.68311 3.49672C6.72928 2.45055 8.1249 1.81562 9.66764 1.6718C9.89131 1.65594 10.115 1.64062 10.3425 1.64062C13.3016 1.64062 16.3515 2.99305 18.7097 5.35117C19.3402 5.98172 19.9029 6.67078 20.3919 7.40414C18.9404 7.73828 17.582 8.35297 16.38 9.19516C16.0158 8.42297 15.4957 7.68414 14.8427 7.03062C13.7949 5.98281 12.5294 5.26805 11.2787 5.01812C9.94436 4.75234 8.78389 5.03617 8.00295 5.81711C6.42521 7.39484 6.95842 10.3988 9.21646 12.6569C9.66545 13.1059 10.1544 13.4887 10.6629 13.8042C9.2717 13.9814 7.96904 14.3391 6.79654 14.869C5.91225 13.9606 5.17451 12.9057 4.66592 11.8021L3.67279 12.2598C4.18686 13.3766 4.91803 14.4424 5.78537 15.383C5.05256 15.8009 4.38865 16.292 3.78873 16.8383C2.82131 15.4394 2.14975 13.9005 1.84021 12.3523C1.30045 9.65344 1.84842 7.06125 3.34029 5.06078ZM12.6716 13.5193C11.7419 13.259 10.7838 12.6777 9.98975 11.8836C8.22607 10.1199 7.671 7.69617 8.77623 6.59039C9.29029 6.07578 10.1035 5.89859 11.0644 6.09C12.1051 6.29836 13.1726 6.90703 14.0694 7.80336C14.6983 8.43227 15.1752 9.14758 15.4847 9.88641C14.3292 10.8795 13.3678 12.1078 12.6716 13.5193ZM12.5781 33.3594C6.34264 33.3594 1.64061 29.3623 1.64061 24.0625C1.64061 18.7627 6.34264 14.7656 12.5781 14.7656C18.8136 14.7656 23.5156 18.7627 23.5156 24.0625C23.5156 29.3623 18.8136 33.3594 12.5781 33.3594ZM21.1061 16.5993C21.6081 16.1317 22.2731 15.8594 22.9687 15.8594C24.4765 15.8594 25.7031 17.086 25.7031 18.5938C25.7031 19.67 25.0764 20.6216 24.1325 21.0651C23.5681 19.3288 22.5219 17.8046 21.1061 16.5993ZM23.2701 28.9691C23.6901 28.2598 24.0116 27.4952 24.2375 26.6902C28.2144 26.0734 31.1719 22.6609 31.1719 18.5938C31.1719 17.1516 30.7923 15.733 30.0737 14.4916L29.1276 15.0396C29.7489 16.1148 30.0781 17.3436 30.0781 18.5938C30.0781 21.9762 27.7205 24.8391 24.4858 25.5385C24.5585 25.0567 24.6094 24.5673 24.6094 24.0625C24.6094 23.3986 24.535 22.756 24.4103 22.1331C25.836 21.554 26.7969 20.1693 26.7969 18.5938C26.7969 16.4828 25.0791 14.7656 22.9687 14.7656C21.9324 14.7656 20.9447 15.1938 20.2289 15.9266C19.3309 15.3048 18.3192 14.7968 17.2167 14.4211C18.5462 12.5962 20.6899 11.4844 22.9687 11.4844C24.4316 11.4844 25.836 11.9252 27.0309 12.7586L27.6571 11.8612C26.2773 10.8992 24.6564 10.3906 22.9687 10.3906C20.2097 10.3906 17.6203 11.8021 16.1109 14.0968C15.3688 13.913 14.5939 13.7845 13.79 13.7211C15.5826 10.3447 19.1029 8.20312 22.9687 8.20312C28.6983 8.20312 33.3594 12.8641 33.3594 18.5938C33.3594 24.2216 28.8591 28.8077 23.2701 28.9691Z" fill="#707070"/>
</svg>
