<svg width="56" height="53" viewBox="0 0 56 53" fill="none" xmlns="http://www.w3.org/2000/svg">
<path d="M24.6536 8.69653C23.3318 6.55087 21.9022 4.46119 20.6282 2.81244C18.615 0.20706 18.0411 0 17.5 0C16.9588 0 16.385 0.20706 14.3719 2.81244C13.0978 4.46119 11.6682 6.55087 10.3465 8.69653C8.2695 12.068 4.78516 18.3165 4.78516 22.2852C4.78516 29.2962 10.489 35 17.5 35C24.511 35 30.2148 29.2962 30.2148 22.2852C30.2148 18.3165 26.7305 12.0679 24.6536 8.69653ZM17.5 32.9492C11.6198 32.9492 6.83593 28.1654 6.83593 22.2852C6.83593 19.858 8.62941 15.4978 11.7566 10.3227C14.2212 6.244 16.5416 3.2541 17.5 2.27971C18.4584 3.2541 20.7788 6.244 23.2434 10.3227C26.3705 15.4978 28.164 19.858 28.164 22.2852C28.164 28.1654 23.3802 32.9492 17.5 32.9492Z" fill="#707070"/>
<path d="M22.6611 22.3194H18.5254V18.1837C18.5254 17.6174 18.0663 17.1583 17.5 17.1583C16.9337 17.1583 16.4746 17.6174 16.4746 18.1837V22.3194H12.3389C11.7726 22.3194 11.3135 22.7785 11.3135 23.3448C11.3135 23.9111 11.7726 24.3702 12.3389 24.3702H16.4746V28.5059C16.4746 29.0721 16.9337 29.5312 17.5 29.5312C18.0663 29.5312 18.5254 29.0721 18.5254 28.5059V24.3701H22.6611C23.2274 24.3701 23.6865 23.911 23.6865 23.3447C23.6865 22.7784 23.2275 22.3194 22.6611 22.3194Z" fill="#707070"/>
<path d="M45.6536 26.6965C44.3318 24.5509 42.9022 22.4612 41.6282 20.8124C39.615 18.2071 39.0411 18 38.5 18C37.9588 18 37.385 18.2071 35.3719 20.8124C34.0978 22.4612 32.6682 24.5509 31.3465 26.6965C29.2695 30.068 25.7852 36.3165 25.7852 40.2852C25.7852 47.2962 31.489 53 38.5 53C45.511 53 51.2148 47.2962 51.2148 40.2852C51.2148 36.3165 47.7305 30.0679 45.6536 26.6965ZM38.5 50.9492C32.6198 50.9492 27.8359 46.1654 27.8359 40.2852C27.8359 37.858 29.6294 33.4978 32.7566 28.3227C35.2212 24.244 37.5416 21.2541 38.5 20.2797C39.4584 21.2541 41.7788 24.244 44.2434 28.3227C47.3705 33.4978 49.164 37.858 49.164 40.2852C49.164 46.1654 44.3802 50.9492 38.5 50.9492Z" fill="#707070"/>
<path d="M43.6611 40.3194H39.5254V36.1837C39.5254 35.6174 39.0663 35.1583 38.5 35.1583C37.9337 35.1583 37.4746 35.6174 37.4746 36.1837V40.3194H33.3389C32.7726 40.3194 32.3135 40.7785 32.3135 41.3448C32.3135 41.9111 32.7726 42.3702 33.3389 42.3702H37.4746V46.5059C37.4746 47.0721 37.9337 47.5312 38.5 47.5312C39.0663 47.5312 39.5254 47.0721 39.5254 46.5059V42.3701H43.6611C44.2274 42.3701 44.6865 41.911 44.6865 41.3447C44.6865 40.7784 44.2275 40.3194 43.6611 40.3194Z" fill="#707070"/>
</svg>
