<svg width="58" height="58" viewBox="0 0 58 58" fill="none" xmlns="http://www.w3.org/2000/svg">
<g filter="url(#filter0_d)">
<circle cx="28" cy="27" r="24" fill="#FECB49" stroke="white" stroke-width="2"/>
<path d="M34.0095 20.9978H21.5584C21.3472 20.9978 21.176 21.1691 21.176 21.3803C21.176 21.5916 21.3472 21.7628 21.5584 21.7628H34.0095C34.2208 21.7628 34.392 21.5916 34.392 21.3803C34.392 21.1691 34.2207 20.9978 34.0095 20.9978Z" fill="white"/>
<path d="M21.5584 19.1097H27.7839C27.9952 19.1097 28.1664 18.9384 28.1664 18.7272C28.1664 18.5159 27.9952 18.3447 27.7839 18.3447H21.5584C21.3472 18.3447 21.176 18.5159 21.176 18.7272C21.176 18.9385 21.3472 19.1097 21.5584 19.1097Z" fill="white"/>
<path d="M34.0095 23.3486H21.5584C21.3472 23.3486 21.176 23.5199 21.176 23.7311C21.176 23.9424 21.3472 24.1136 21.5584 24.1136H34.0095C34.2208 24.1136 34.392 23.9424 34.392 23.7311C34.3919 23.5199 34.2207 23.3486 34.0095 23.3486Z" fill="white"/>
<path d="M24.3947 37.3425H20.4101C19.756 37.3425 19.2239 36.8104 19.2239 36.1564V15.9511C19.2239 15.2971 19.756 14.7649 20.4101 14.7649H31.8895C31.9265 14.7649 31.963 14.7683 31.9991 14.7732V17.1586C31.9991 18.2344 32.8744 19.1097 33.9502 19.1097H36.3356C36.3405 19.1458 36.3438 19.1823 36.3438 19.2194V25.7327C36.3438 25.9439 36.5151 26.1151 36.7263 26.1151C36.9376 26.1151 37.1088 25.9439 37.1088 25.7327V19.2194C37.1088 18.7999 36.9454 18.4054 36.6487 18.1087L33.0001 14.4601C32.7034 14.1634 32.309 14 31.8895 14H20.4101C19.3342 14 18.459 14.8753 18.459 15.9511V36.1564C18.459 37.2322 19.3343 38.1074 20.4101 38.1074H24.3947C24.606 38.1074 24.7772 37.9362 24.7772 37.725C24.7772 37.5137 24.606 37.3425 24.3947 37.3425ZM35.803 18.3447H33.9503C33.2963 18.3447 32.7641 17.8126 32.7641 17.1586V15.3059L35.803 18.3447Z" fill="white"/>
<path d="M41.4236 32.7245L38.1829 27.2544C37.9467 26.8555 37.4327 26.7237 37.0337 26.9601L36.2454 27.4271C35.6335 27.7896 35.3749 28.5231 35.585 29.1732C35.3194 29.2694 35.0282 29.2679 34.7601 29.1642C34.1377 28.9684 33.6645 28.5745 32.883 28.7722C31.5561 29.11 31.5965 29.0931 31.4764 29.1342C30.6995 28.6919 30.2324 28.5603 29.4076 28.8793L28.6724 29.1635C28.332 29.2951 27.957 29.2639 27.6424 29.0775L27.4418 28.9592C27.5397 28.3726 27.2795 27.7535 26.7287 27.4272C26.7287 27.4272 26.7287 27.4272 26.7286 27.4272L25.9404 26.9602C25.5425 26.7245 25.0269 26.8564 24.7912 27.2544L21.5504 32.7246C21.3142 33.1233 21.4456 33.6375 21.8445 33.8738L22.6328 34.3407C22.8713 34.4821 23.1334 34.5492 23.3924 34.5492C23.6812 34.5492 23.9659 34.4656 24.2094 34.3079L24.3736 34.4049L24.0268 34.888C23.6135 35.4637 23.7448 36.2643 24.3207 36.6777C24.587 36.8688 24.9215 36.9561 25.2675 36.9018C25.3224 37.2227 25.4982 37.523 25.7829 37.7274C26.0502 37.9194 26.3833 38.0068 26.7298 37.9522C26.7849 38.2728 26.9606 38.5729 27.2451 38.7772C27.6275 39.0517 28.1029 39.0834 28.4991 38.9142C28.5857 39.1394 28.7364 39.3427 28.9466 39.4936C29.4954 39.8875 30.2515 39.7848 30.6779 39.2744L31.5996 39.8204C32.2091 40.1816 32.9956 39.9809 33.357 39.3707C33.4494 39.2147 33.5067 39.0447 33.5277 38.8699L33.5298 38.8712C34.1384 39.2316 34.9266 39.0298 35.2872 38.4214C35.3916 38.2451 35.4488 38.0539 35.4627 37.8623C35.9992 37.9972 36.5838 37.7719 36.8799 37.2722C36.977 37.1083 37.0333 36.9312 37.0519 36.753C37.6268 36.9786 38.2988 36.7606 38.6235 36.2125C38.7981 35.9177 38.8476 35.5726 38.7626 35.2407C38.714 35.0508 38.6246 34.8784 38.5019 34.7328L39.01 34.436C39.4397 34.6124 39.9302 34.5841 40.3412 34.3407L41.1293 33.8737C41.5282 33.6376 41.66 33.1235 41.4236 32.7245ZM23.0227 33.6827L22.2344 33.2156C22.1994 33.1949 22.1878 33.1495 22.2085 33.1144L25.4493 27.6441C25.4702 27.6089 25.5158 27.5975 25.5506 27.6182L26.3388 28.0851C26.689 28.2927 26.7986 28.7419 26.5949 29.0857L24.0232 33.4265C23.818 33.7731 23.3692 33.8879 23.0227 33.6827ZM24.7667 36.0563C24.5345 35.8895 24.4813 35.5664 24.6482 35.3341L25.158 34.6239C25.3204 34.3977 25.644 34.3358 25.8802 34.5054C26.112 34.6718 26.1652 34.9957 25.9988 35.2275L25.489 35.9377C25.3226 36.1696 24.9984 36.2226 24.7667 36.0563ZM26.229 37.1061C25.9972 36.9396 25.944 36.6156 26.1104 36.3838L26.6202 35.6737C26.6202 35.6737 26.6202 35.6737 26.6202 35.6737C26.6202 35.6737 26.6202 35.6736 26.6202 35.6736L27.1829 34.89C27.2635 34.7777 27.383 34.7035 27.5194 34.6811C27.5477 34.6765 27.5761 34.6742 27.6043 34.6742C27.7116 34.6742 27.8161 34.7076 27.9051 34.7714C28.0173 34.8521 28.0915 34.9715 28.1139 35.1079C28.1363 35.2443 28.1042 35.3813 28.0236 35.4936L26.9511 36.9875C26.7845 37.2198 26.4614 37.2729 26.229 37.1061ZM27.6912 38.1558C27.4595 37.9894 27.4063 37.6656 27.5724 37.4339C27.5724 37.4338 27.5725 37.4337 27.5726 37.4336L28.645 35.9397C28.8114 35.708 29.1355 35.6548 29.3673 35.8211C29.5991 35.9875 29.6522 36.3115 29.4858 36.5433L29.0094 37.2071C29.0094 37.2071 29.0094 37.2071 29.0093 37.2071L28.4134 38.0372C28.247 38.269 27.9231 38.3223 27.6912 38.1558ZM29.3927 38.8722C29.161 38.7058 29.1078 38.3822 29.2738 38.1504L29.6307 37.6532C29.7971 37.4214 30.1212 37.3684 30.3529 37.5347C30.5847 37.701 30.6379 38.0251 30.4715 38.2569L30.1149 38.7536C29.9485 38.9854 29.6244 39.0387 29.3927 38.8722ZM37.9655 35.8227C37.82 36.0683 37.5019 36.1498 37.2562 36.0043C36.8402 35.7578 34.1567 34.168 33.8706 33.9985C33.6888 33.8909 33.4543 33.9508 33.3466 34.1326C33.239 34.3143 33.2989 34.5489 33.4807 34.6566L36.0402 36.173L36.0403 36.173C36.286 36.3186 36.368 36.6357 36.2219 36.8824C36.0763 37.1281 35.758 37.2094 35.5125 37.064C34.5658 36.5032 33.7971 36.0478 32.9516 35.5468C32.7697 35.4392 32.5352 35.4992 32.4275 35.6809C32.3199 35.8627 32.3799 36.0973 32.5616 36.2049L34.4475 37.3222L34.4479 37.3225C34.6938 37.4685 34.775 37.7854 34.6292 38.0316C34.4836 38.2774 34.1654 38.3588 33.9197 38.2132L32.9076 37.6136C32.9075 37.6136 32.9073 37.6135 32.9072 37.6134C32.9071 37.6134 32.907 37.6133 32.9069 37.6133L32.1683 37.1757C31.9865 37.0679 31.7519 37.1279 31.6443 37.3097C31.5366 37.4915 31.5966 37.7261 31.7784 37.8337L32.5171 38.2714C32.5172 38.2715 32.5173 38.2716 32.5174 38.2716C32.7632 38.4172 32.8451 38.7342 32.699 38.9809C32.5534 39.2267 32.2353 39.3081 31.9896 39.1625L31.1277 38.652C31.4972 38.0819 31.3567 37.3137 30.799 36.9135C30.6353 36.796 30.4529 36.7228 30.2664 36.6914C30.4642 36.1624 30.2937 35.5448 29.8133 35.2C29.5289 34.9957 29.1885 34.9252 28.8671 34.9756C28.8099 34.6412 28.6271 34.3483 28.3512 34.1503C27.8323 33.7779 27.1271 33.8494 26.6916 34.2901C26.6031 34.1346 26.4809 33.9952 26.3263 33.8842C25.8951 33.5748 25.3353 33.5719 24.9085 33.8325L24.7332 33.7291L27.1387 29.6687L27.2532 29.7362C27.759 30.0358 28.3762 30.0983 28.9482 29.8771L29.6834 29.5928C30.1041 29.4302 30.3362 29.4196 30.7523 29.616C30.48 29.9219 30.3184 30.3235 30.3184 30.7564V32.4522C30.3184 32.9027 30.6846 33.2694 31.1347 33.2697H31.1358C31.5872 33.2697 32.0117 33.0939 32.3311 32.7747C32.5173 32.5887 32.6547 32.3669 32.7371 32.1247C33.2309 32.4172 37.311 34.8333 37.784 35.1136C37.903 35.1841 37.9874 35.2966 38.0217 35.4306C38.056 35.5644 38.036 35.7037 37.9655 35.8227ZM40.7396 33.2156L39.9513 33.6827C39.6048 33.8878 39.156 33.7729 38.9508 33.4266L37.7455 31.392C37.6378 31.2103 37.4031 31.1503 37.2215 31.2579C37.0397 31.3655 36.9797 31.6001 37.0873 31.7819L38.2927 33.8165C38.3154 33.8548 38.34 33.8912 38.3655 33.9267L38.0304 34.1224C37.9626 34.1625 37.8975 34.2067 37.8352 34.2547L32.6391 31.1776C32.3845 31.027 32.0618 31.2106 32.0618 31.5067C32.0578 31.5295 32.1013 31.9227 31.7903 32.2335C31.6154 32.4083 31.383 32.5045 31.1357 32.5045C31.1355 32.5045 31.1353 32.5045 31.1351 32.5045C31.1065 32.5045 31.0833 32.481 31.0833 32.452V30.7562C31.0833 30.3132 31.388 29.9394 31.8002 29.8351L33.0706 29.5136C33.5315 29.3971 33.7921 29.6432 34.4823 29.8768C34.9614 30.0622 35.4823 30.0507 35.9448 29.8532L36.1756 30.2429C36.2833 30.4248 36.5179 30.4847 36.6996 30.3771C36.8814 30.2695 36.9414 30.0348 36.8338 29.8531L36.3791 29.0856C36.1734 28.7384 36.288 28.2909 36.6352 28.0851L37.4234 27.6182C37.4578 27.5977 37.5034 27.6082 37.5247 27.6441L40.7655 33.1143C40.7864 33.1496 40.7749 33.1948 40.7396 33.2156Z" fill="white"/>
</g>
<defs>
<filter id="filter0_d" x="0" y="0" width="58" height="58" filterUnits="userSpaceOnUse" color-interpolation-filters="sRGB">
<feFlood flood-opacity="0" result="BackgroundImageFix"/>
<feColorMatrix in="SourceAlpha" type="matrix" values="0 0 0 0 0 0 0 0 0 0 0 0 0 0 0 0 0 0 127 0"/>
<feOffset dx="1" dy="2"/>
<feGaussianBlur stdDeviation="2"/>
<feColorMatrix type="matrix" values="0 0 0 0 0 0 0 0 0 0 0 0 0 0 0 0 0 0 0.25 0"/>
<feBlend mode="normal" in2="BackgroundImageFix" result="effect1_dropShadow"/>
<feBlend mode="normal" in="SourceGraphic" in2="effect1_dropShadow" result="shape"/>
</filter>
</defs>
</svg>
