<svg width="28" height="28" viewBox="0 0 28 28" fill="none" xmlns="http://www.w3.org/2000/svg">
<path d="M7.68246 9.8175C8.50496 10.64 9.48058 11.1562 10.3775 11.3181C10.3687 11.34 10.36 11.3575 10.3512 11.3794C10.255 11.375 10.1587 11.375 10.0625 11.375C8.31246 11.375 6.70683 11.7556 5.34183 12.425C4.43183 12.8713 3.63121 13.4487 2.97058 14.1312C2.00371 12.8669 1.33433 11.4275 1.04558 9.96625C0.511833 7.315 1.22496 4.77313 3.00121 3.00125C4.30496 1.6975 6.06371 0.949375 7.97996 0.88375C8.07621 0.875 8.17683 0.875 8.27308 0.875C10.7581 0.875 13.3087 2.00375 15.2775 3.9725C15.96 4.655 16.5506 5.42062 17.0231 6.23C15.4875 6.46625 14.0787 7.10938 12.915 8.03688C12.67 7.31938 12.2106 6.58 11.5631 5.9325C9.95746 4.32688 7.78308 3.88937 6.71121 4.96125C5.63933 6.03312 6.07246 8.2075 7.68246 9.8175Z" fill="#DA4453"/>
<path d="M11.5631 5.9325C12.2106 6.58 12.67 7.31938 12.915 8.03688C11.8256 8.9075 10.9506 10.0319 10.3775 11.3181C9.4806 11.1563 8.50498 10.64 7.68248 9.8175C6.07248 8.2075 5.63935 6.03313 6.71123 4.96125C7.7831 3.88938 9.95748 4.32688 11.5631 5.9325Z" fill="#EF7385"/>
<path d="M19.0487 20.965C19.1799 20.4181 19.2499 19.845 19.2499 19.25C19.2499 18.6156 19.1712 18.0031 19.0181 17.4212H19.0224C20.1599 17.1325 20.9999 16.1 20.9999 14.875C20.9999 13.4269 19.8231 12.25 18.3749 12.25C17.5043 12.25 16.7299 12.6744 16.2531 13.3306C14.7087 12.1537 12.6612 11.4363 10.3512 11.3794C10.3599 11.3575 10.3687 11.34 10.3774 11.3181C10.9506 10.0319 11.8256 8.9075 12.9149 8.03688C14.0787 7.10938 15.4874 6.46625 17.0231 6.23C17.4649 6.16 17.9156 6.125 18.3749 6.125C23.2093 6.125 27.1249 10.0406 27.1249 14.875C27.1249 19.7094 23.2093 23.625 18.3749 23.625C18.1824 23.625 17.9943 23.6206 17.8062 23.6075C18.3924 22.82 18.8168 21.9319 19.0487 20.965Z" fill="#ED5565"/>
<path d="M21 14.875C21 16.1 20.16 17.1325 19.0225 17.4212H19.0181C18.6025 15.7894 17.6225 14.3806 16.2531 13.3306C16.73 12.6744 17.5044 12.25 18.375 12.25C19.8231 12.25 21 13.4269 21 14.875Z" fill="#DA4453"/>
<path d="M19.0181 17.4212C19.1712 18.0031 19.2499 18.6156 19.2499 19.25C19.2499 19.845 19.1799 20.4181 19.0487 20.965C18.8168 21.9319 18.3924 22.82 17.8062 23.6075C16.2006 25.7556 13.3918 27.125 10.0624 27.125C4.82556 27.125 0.874939 23.7388 0.874939 19.25C0.874939 17.2594 1.64931 15.4875 2.97056 14.1312C3.63119 13.4487 4.43181 12.8712 5.34181 12.425C6.70681 11.7556 8.31244 11.375 10.0624 11.375C10.1587 11.375 10.2549 11.375 10.3512 11.3794C12.6612 11.4363 14.7087 12.1537 16.2531 13.3306C17.6224 14.3806 18.6024 15.7894 19.0181 17.4212Z" fill="#EF7385"/>
<path d="M10.0624 21C11.7538 21 13.1249 20.2165 13.1249 19.25C13.1249 18.2835 11.7538 17.5 10.0624 17.5C8.37107 17.5 6.99994 18.2835 6.99994 19.25C6.99994 20.2165 8.37107 21 10.0624 21Z" fill="#ED5565"/>
<path d="M13.5625 19.25C13.5625 18.0233 12.0251 17.0625 10.0625 17.0625C8.09987 17.0625 6.5625 18.0233 6.5625 19.25C6.5625 20.4767 8.09987 21.4375 10.0625 21.4375C12.0251 21.4375 13.5625 20.4767 13.5625 19.25ZM7.4375 19.25C7.4375 18.6292 8.5155 17.9375 10.0625 17.9375C11.6095 17.9375 12.6875 18.6292 12.6875 19.25C12.6875 19.8708 11.6095 20.5625 10.0625 20.5625C8.5155 20.5625 7.4375 19.8708 7.4375 19.25Z" fill="black"/>
<path d="M3.9375 19.25H3.0625C3.0625 20.9514 3.88369 22.4761 5.37513 23.5432L5.88438 22.8314C4.62875 21.9336 3.9375 20.6614 3.9375 19.25Z" fill="black"/>
<path d="M16.1875 19.25C16.1875 21.9936 13.5542 24.0625 10.0625 24.0625C9.18398 24.0625 8.34705 23.933 7.57442 23.6784L7.30011 24.5087C8.16111 24.7936 9.09036 24.9375 10.0625 24.9375C14.0529 24.9375 17.0625 22.4923 17.0625 19.25H16.1875Z" fill="black"/>
<path d="M18.375 5.6875C17.9939 5.6875 17.6177 5.71637 17.2458 5.76231C16.7772 5.00631 16.2234 4.29887 15.5864 3.66188C13.5371 1.61306 10.8719 0.4375 8.274 0.4375C8.06268 0.4375 7.85356 0.447563 7.64706 0.466813C5.74306 0.60725 4.0005 1.38075 2.69018 2.69106C0.811121 4.56969 0.0546838 7.25331 0.614246 10.0538C0.895121 11.4586 1.5155 12.8503 2.408 14.1024C1.16725 15.4998 0.437496 17.2703 0.437496 19.25C0.437496 23.989 4.57537 27.5625 10.0625 27.5625C13.4444 27.5625 16.3096 26.2019 18.0136 24.0507C18.1339 24.0555 18.2534 24.0625 18.375 24.0625C23.4408 24.0625 27.5625 19.9408 27.5625 14.875C27.5625 9.80875 23.4408 5.6875 18.375 5.6875ZM2.67225 4.04862C2.17918 5.22069 2.05231 6.56906 2.33056 7.96119C2.36162 8.11606 2.3975 8.2705 2.43818 8.42406L3.28431 8.2005C3.248 8.06356 3.2165 7.92575 3.1885 7.78881C2.8035 5.86425 3.29875 4.04469 4.5465 2.79737C5.38343 1.96044 6.49993 1.4525 7.73412 1.33744C7.91306 1.32475 8.092 1.3125 8.274 1.3125C10.6413 1.3125 13.0812 2.39444 14.9677 4.28094C15.4722 4.78538 15.9224 5.33662 16.3135 5.92331C15.1524 6.19062 14.0656 6.68237 13.104 7.35612C12.8126 6.73837 12.3966 6.14731 11.8742 5.6245C11.0359 4.78625 10.0236 4.21444 9.023 4.0145C7.9555 3.80187 7.02712 4.02894 6.40237 4.65369C5.14018 5.91587 5.56675 8.31906 7.37318 10.1255C7.73237 10.4847 8.1235 10.7909 8.53037 11.0434C7.41737 11.1851 6.37525 11.4712 5.43725 11.8952C4.72981 11.1685 4.13962 10.3246 3.73275 9.44169L2.93825 9.80787C3.3495 10.7013 3.93443 11.5539 4.62831 12.3064C4.04206 12.6407 3.51093 13.0336 3.031 13.4706C2.25706 12.3515 1.71981 11.1204 1.47218 9.88181C1.04037 7.72275 1.47875 5.649 2.67225 4.04862ZM10.1373 10.8154C9.39356 10.6072 8.62706 10.1421 7.99181 9.50688C6.58087 8.09594 6.13681 6.15694 7.021 5.27231C7.43225 4.86062 8.08281 4.71887 8.8515 4.872C9.68406 5.03869 10.5381 5.52563 11.2556 6.24269C11.7587 6.74581 12.1402 7.31806 12.3878 7.90912C11.4634 8.70362 10.6942 9.68625 10.1373 10.8154ZM10.0625 26.6875C5.07412 26.6875 1.3125 23.4898 1.3125 19.25C1.3125 15.0102 5.07412 11.8125 10.0625 11.8125C15.0509 11.8125 18.8125 15.0102 18.8125 19.25C18.8125 23.4898 15.0509 26.6875 10.0625 26.6875ZM16.8849 13.2794C17.2865 12.9054 17.8185 12.6875 18.375 12.6875C19.5812 12.6875 20.5625 13.6688 20.5625 14.875C20.5625 15.736 20.0611 16.4972 19.306 16.8521C18.8545 15.463 18.0176 14.2437 16.8849 13.2794ZM18.6161 23.1753C18.9521 22.6078 19.2093 21.9962 19.39 21.3522C22.5715 20.8587 24.9375 18.1287 24.9375 14.875C24.9375 13.7213 24.6339 12.5864 24.059 11.5933L23.3021 12.0317C23.7991 12.8918 24.0625 13.8749 24.0625 14.875C24.0625 17.5809 22.1764 19.8713 19.5886 20.4308C19.6468 20.0454 19.6875 19.6538 19.6875 19.25C19.6875 18.7189 19.628 18.2048 19.5282 17.7065C20.6688 17.2432 21.4375 16.1354 21.4375 14.875C21.4375 13.1862 20.0633 11.8125 18.375 11.8125C17.5459 11.8125 16.7558 12.1551 16.1831 12.7413C15.4647 12.2439 14.6554 11.8374 13.7734 11.5369C14.8369 10.0769 16.5519 9.1875 18.375 9.1875C19.5453 9.1875 20.6688 9.54012 21.6247 10.2069L22.1257 9.48894C21.0219 8.71937 19.7251 8.3125 18.375 8.3125C16.1678 8.3125 14.0962 9.44169 12.8887 11.2774C12.2951 11.1304 11.6751 11.0276 11.032 10.9769C12.4661 8.27575 15.2823 6.5625 18.375 6.5625C22.9587 6.5625 26.6875 10.2913 26.6875 14.875C26.6875 19.3773 23.0873 23.0462 18.6161 23.1753Z" fill="black"/>
</svg>
